<?xml version="1.0" encoding="UTF-8"?>
<!DOCTYPE svg PUBLIC "-//W3C//DTD SVG 1.1//EN" "http://www.w3.org/Graphics/SVG/1.1/DTD/svg11.dtd">
<!-- Creator: CorelDRAW 2021 (64-Bit) -->
<svg xmlns="http://www.w3.org/2000/svg" xml:space="preserve" width="537px" height="364px" version="1.1" style="shape-rendering:geometricPrecision; text-rendering:geometricPrecision; image-rendering:optimizeQuality; fill-rule:evenodd; clip-rule:evenodd"
viewBox="0 0 132.63 89.94"
 xmlns:xlink="http://www.w3.org/1999/xlink"
 xmlns:xodm="http://www.corel.com/coreldraw/odm/2003">
 <defs>
  <style type="text/css">
   <![CDATA[
    .str1 {stroke:#979798;stroke-width:0.49;stroke-miterlimit:22.9256}
    .str0 {stroke:black;stroke-width:0.58;stroke-miterlimit:10}
    .fil1 {fill:none}
    .fil4 {fill:none;fill-rule:nonzero}
    .fil0 {fill:white}
    .fil2 {fill:#2B2A29;fill-rule:nonzero}
    .fil5 {fill:black;fill-rule:nonzero}
    .fil3 {fill:black;fill-rule:nonzero}
   ]]>
  </style>
   <clipPath id="id0">
    <path d="M0.25 0.25l132.13 0 0 89.44 -132.13 0 0 -89.44z"/>
   </clipPath>
 </defs>
 <g id="Ebene_x0020_1">
  <metadata id="CorelCorpID_0Corel-Layer"/>
  <polygon class="fil0" points="0.25,0.25 132.38,0.25 132.38,89.69 0.25,89.69 "/>
  <g style="clip-path:url(#id0)">
   <g id="_1347403662304">
    <g>
     <rect class="fil1" x="31.62" y="25.09" width="10.18" height="10.18"/>
     <g>
      <path class="fil2" d="M31.99 25.49c0.02,-0.32 0.61,-0.23 0.85,0 1.36,1.47 2.52,3.14 4.07,4.4l4.52 3.69c0.59,0.47 -0.36,1.92 -1.24,1.36 -2.29,-1.46 -8.33,-6.62 -8.2,-9.45z"/>
      <path class="fil2" d="M41.26 25.52c0.33,0.01 0.46,0.46 0.22,0.69 -1.75,1.14 -3.13,2.53 -4.4,4.08l-3.68 4.51c-0.48,0.59 -1.92,-0.36 -1.36,-1.24 1.45,-2.29 6.39,-8.18 9.22,-8.04z"/>
     </g>
    </g>
    <path class="fil3" d="M37.82 17.71c-0.27,0.23 -0.53,0.39 -0.78,0.48 -0.25,0.09 -0.51,0.14 -0.8,0.14 -0.47,0 -0.83,-0.11 -1.08,-0.34 -0.25,-0.23 -0.38,-0.52 -0.38,-0.88 0,-0.2 0.05,-0.39 0.14,-0.57 0.1,-0.17 0.22,-0.31 0.38,-0.41 0.15,-0.11 0.32,-0.19 0.52,-0.24 0.14,-0.04 0.36,-0.07 0.64,-0.11 0.59,-0.07 1.02,-0.15 1.29,-0.25 0.01,-0.09 0.01,-0.16 0.01,-0.18 0,-0.3 -0.07,-0.5 -0.21,-0.62 -0.18,-0.17 -0.46,-0.25 -0.82,-0.25 -0.34,0 -0.6,0.06 -0.76,0.18 -0.16,0.12 -0.28,0.33 -0.36,0.64l-0.71 -0.1c0.07,-0.31 0.17,-0.55 0.32,-0.74 0.15,-0.18 0.36,-0.33 0.64,-0.43 0.28,-0.1 0.61,-0.15 0.97,-0.15 0.37,0 0.67,0.04 0.89,0.13 0.23,0.09 0.4,0.19 0.51,0.32 0.11,0.13 0.18,0.3 0.22,0.5 0.03,0.12 0.04,0.34 0.04,0.66l0 0.96c0,0.67 0.02,1.1 0.05,1.28 0.02,0.18 0.08,0.35 0.17,0.51l-0.75 0c-0.08,-0.15 -0.12,-0.33 -0.14,-0.53zm-0.06 -1.61c-0.27,0.11 -0.66,0.2 -1.19,0.27 -0.3,0.05 -0.51,0.09 -0.63,0.15 -0.12,0.05 -0.22,0.13 -0.29,0.23 -0.06,0.1 -0.1,0.22 -0.1,0.34 0,0.19 0.08,0.35 0.22,0.48 0.15,0.13 0.36,0.19 0.64,0.19 0.28,0 0.53,-0.06 0.75,-0.18 0.22,-0.12 0.38,-0.29 0.48,-0.49 0.08,-0.17 0.11,-0.41 0.11,-0.72l0.01 -0.27z"/>
    <path class="fil3" d="M54.57 18.24l-0.67 0 0 -5.89 0.72 0 0 2.1c0.31,-0.38 0.7,-0.57 1.17,-0.57 0.26,0 0.51,0.05 0.75,0.16 0.23,0.1 0.42,0.25 0.58,0.44 0.15,0.2 0.27,0.43 0.35,0.7 0.09,0.27 0.13,0.55 0.13,0.86 0,0.73 -0.18,1.3 -0.54,1.69 -0.36,0.4 -0.8,0.6 -1.3,0.6 -0.51,0 -0.9,-0.21 -1.19,-0.63l0 0.54zm-0.01 -2.17c0,0.51 0.07,0.88 0.21,1.11 0.23,0.37 0.54,0.56 0.93,0.56 0.31,0 0.59,-0.14 0.81,-0.41 0.23,-0.28 0.35,-0.68 0.35,-1.23 0,-0.55 -0.11,-0.96 -0.33,-1.23 -0.22,-0.26 -0.49,-0.4 -0.8,-0.4 -0.32,0 -0.59,0.14 -0.82,0.41 -0.23,0.28 -0.35,0.68 -0.35,1.19z"/>
    <path class="fil3" d="M75.86 16.68l0.71 0.1c-0.08,0.48 -0.28,0.86 -0.6,1.14 -0.32,0.27 -0.71,0.41 -1.18,0.41 -0.58,0 -1.05,-0.19 -1.4,-0.57 -0.36,-0.38 -0.53,-0.93 -0.53,-1.64 0,-0.46 0.07,-0.86 0.23,-1.21 0.15,-0.34 0.38,-0.6 0.69,-0.77 0.31,-0.17 0.65,-0.26 1.02,-0.26 0.46,0 0.84,0.12 1.13,0.35 0.3,0.24 0.49,0.57 0.57,1l-0.7 0.11c-0.07,-0.29 -0.18,-0.5 -0.36,-0.65 -0.17,-0.14 -0.37,-0.22 -0.61,-0.22 -0.37,0 -0.66,0.13 -0.89,0.39 -0.23,0.27 -0.34,0.68 -0.34,1.24 0,0.58 0.11,0.99 0.33,1.25 0.22,0.26 0.5,0.39 0.86,0.39 0.28,0 0.52,-0.09 0.71,-0.26 0.19,-0.17 0.31,-0.44 0.36,-0.8z"/>
    <path class="fil3" d="M94.55 18.24l0 -0.54c-0.27,0.42 -0.66,0.63 -1.19,0.63 -0.34,0 -0.65,-0.09 -0.94,-0.28 -0.28,-0.19 -0.5,-0.45 -0.66,-0.78 -0.16,-0.34 -0.23,-0.72 -0.23,-1.16 0,-0.42 0.07,-0.81 0.21,-1.16 0.14,-0.34 0.35,-0.61 0.64,-0.79 0.28,-0.19 0.6,-0.28 0.95,-0.28 0.26,0 0.48,0.06 0.68,0.16 0.21,0.11 0.37,0.26 0.49,0.43l0 -2.12 0.73 0 0 5.89 -0.68 0zm-2.28 -2.13c0,0.55 0.11,0.95 0.34,1.22 0.23,0.27 0.51,0.41 0.82,0.41 0.32,0 0.59,-0.13 0.81,-0.39 0.22,-0.26 0.33,-0.65 0.33,-1.18 0,-0.58 -0.11,-1.01 -0.34,-1.28 -0.22,-0.27 -0.5,-0.41 -0.83,-0.41 -0.32,0 -0.59,0.13 -0.81,0.39 -0.21,0.27 -0.32,0.68 -0.32,1.24z"/>
    <path class="fil3" d="M113.76 16.86l0.75 0.1c-0.12,0.43 -0.33,0.77 -0.65,1.01 -0.32,0.24 -0.73,0.36 -1.22,0.36 -0.62,0 -1.12,-0.19 -1.48,-0.57 -0.37,-0.39 -0.55,-0.93 -0.55,-1.62 0,-0.71 0.19,-1.27 0.55,-1.67 0.37,-0.39 0.85,-0.59 1.44,-0.59 0.57,0 1.03,0.19 1.39,0.58 0.36,0.39 0.55,0.94 0.55,1.64 0,0.04 -0.01,0.11 -0.01,0.19l-3.18 0c0.03,0.47 0.16,0.83 0.4,1.08 0.24,0.24 0.53,0.37 0.89,0.37 0.26,0 0.49,-0.07 0.68,-0.21 0.19,-0.14 0.33,-0.36 0.44,-0.67zm-2.37 -1.16l2.38 0c-0.03,-0.36 -0.12,-0.63 -0.27,-0.81 -0.23,-0.28 -0.53,-0.42 -0.9,-0.42 -0.33,0 -0.61,0.11 -0.83,0.34 -0.23,0.22 -0.35,0.52 -0.38,0.89z"/>
    <path class="fil3" d="M17.88 33.36l-1.4 0 0 -5.33c-0.52,0.49 -1.13,0.84 -1.82,1.08l0 -1.29c0.36,-0.12 0.76,-0.35 1.19,-0.69 0.44,-0.33 0.73,-0.72 0.89,-1.17l1.14 0 0 7.4z"/>
    <path id="_1" class="fil3" d="M19.9 35.52c0.28,-0.59 0.48,-1.05 0.59,-1.37 0.11,-0.32 0.22,-0.68 0.32,-1.1 0.09,-0.41 0.17,-0.81 0.21,-1.18 0.05,-0.37 0.07,-0.75 0.07,-1.15 0,-0.79 -0.08,-1.55 -0.25,-2.26 -0.17,-0.71 -0.49,-1.57 -0.95,-2.58l0.96 0c0.5,0.72 0.9,1.48 1.18,2.28 0.28,0.81 0.42,1.63 0.42,2.46 0,0.7 -0.11,1.45 -0.33,2.25 -0.25,0.89 -0.67,1.78 -1.24,2.65l-0.98 0z"/>
    <polygon class="fil4 str0" points="31.62,25.09 41.82,25.09 41.82,35.29 31.62,35.29 "/>
    <polygon class="fil4 str0" points="50.56,25.09 60.76,25.09 60.76,35.29 50.56,35.29 "/>
    <polygon class="fil4 str0" points="69.51,25.09 79.71,25.09 79.71,35.29 69.51,35.29 "/>
    <polygon class="fil4 str0" points="88.45,25.09 98.66,25.09 98.66,35.29 88.45,35.29 "/>
    <polygon class="fil4 str0" points="107.4,25.09 117.6,25.09 117.6,35.29 107.4,35.29 "/>
    <path class="fil3" d="M19.05 51l0 1.31 -4.95 0c0.05,-0.5 0.21,-0.97 0.48,-1.41 0.27,-0.45 0.8,-1.04 1.59,-1.77 0.63,-0.59 1.02,-1 1.17,-1.21 0.19,-0.29 0.29,-0.58 0.29,-0.86 0,-0.32 -0.09,-0.56 -0.26,-0.73 -0.16,-0.17 -0.4,-0.25 -0.69,-0.25 -0.3,0 -0.53,0.09 -0.71,0.26 -0.17,0.18 -0.27,0.48 -0.3,0.89l-1.41 -0.14c0.09,-0.78 0.35,-1.34 0.79,-1.68 0.44,-0.34 1,-0.51 1.66,-0.51 0.73,0 1.3,0.2 1.71,0.59 0.42,0.4 0.63,0.89 0.63,1.47 0,0.33 -0.06,0.65 -0.18,0.95 -0.12,0.3 -0.31,0.61 -0.57,0.94 -0.17,0.22 -0.48,0.53 -0.92,0.94 -0.45,0.41 -0.73,0.68 -0.85,0.82 -0.12,0.13 -0.22,0.27 -0.29,0.39l2.81 0z"/>
    <path id="_1_0" class="fil3" d="M19.9 54.47c0.28,-0.6 0.48,-1.06 0.59,-1.37 0.11,-0.32 0.22,-0.69 0.32,-1.1 0.09,-0.42 0.17,-0.81 0.21,-1.18 0.05,-0.38 0.07,-0.76 0.07,-1.15 0,-0.8 -0.08,-1.55 -0.25,-2.26 -0.17,-0.71 -0.49,-1.58 -0.95,-2.59l0.96 0c0.5,0.72 0.9,1.48 1.18,2.29 0.28,0.81 0.42,1.62 0.42,2.45 0,0.7 -0.11,1.45 -0.33,2.25 -0.25,0.9 -0.67,1.78 -1.24,2.66l-0.98 0z"/>
    <polygon class="fil4 str0" points="31.62,44.03 41.82,44.03 41.82,54.23 31.62,54.23 "/>
    <polygon class="fil4 str0" points="50.56,44.03 60.76,44.03 60.76,54.23 50.56,54.23 "/>
    <polygon class="fil4 str0" points="69.51,44.03 79.71,44.03 79.71,54.23 69.51,54.23 "/>
    <path class="fil3" d="M14.23 69.3l1.37 -0.16c0.04,0.35 0.16,0.61 0.35,0.8 0.19,0.18 0.42,0.28 0.69,0.28 0.29,0 0.53,-0.12 0.73,-0.34 0.2,-0.22 0.3,-0.52 0.3,-0.89 0,-0.36 -0.1,-0.64 -0.29,-0.85 -0.19,-0.21 -0.42,-0.31 -0.69,-0.31 -0.18,0 -0.4,0.04 -0.65,0.11l0.16 -1.15c0.38,0.01 0.67,-0.07 0.87,-0.25 0.2,-0.17 0.3,-0.41 0.3,-0.7 0,-0.25 -0.07,-0.45 -0.22,-0.6 -0.15,-0.14 -0.34,-0.22 -0.59,-0.22 -0.24,0 -0.45,0.09 -0.62,0.25 -0.17,0.17 -0.27,0.42 -0.31,0.74l-1.29 -0.22c0.09,-0.45 0.22,-0.81 0.41,-1.08 0.18,-0.27 0.43,-0.48 0.76,-0.63 0.32,-0.15 0.69,-0.23 1.1,-0.23 0.69,0 1.24,0.22 1.66,0.67 0.35,0.36 0.52,0.77 0.52,1.23 0,0.65 -0.35,1.16 -1.06,1.55 0.42,0.09 0.76,0.29 1.01,0.61 0.25,0.31 0.38,0.69 0.38,1.14 0,0.65 -0.24,1.2 -0.71,1.65 -0.47,0.46 -1.06,0.69 -1.76,0.69 -0.66,0 -1.22,-0.19 -1.65,-0.58 -0.44,-0.38 -0.7,-0.89 -0.77,-1.51z"/>
    <path id="_1_1" class="fil3" d="M19.9 73.41c0.28,-0.59 0.48,-1.05 0.59,-1.37 0.11,-0.31 0.22,-0.68 0.32,-1.1 0.09,-0.41 0.17,-0.81 0.21,-1.18 0.05,-0.37 0.07,-0.75 0.07,-1.14 0,-0.8 -0.08,-1.55 -0.25,-2.27 -0.17,-0.71 -0.49,-1.57 -0.95,-2.58l0.96 0c0.5,0.72 0.9,1.48 1.18,2.29 0.28,0.8 0.42,1.62 0.42,2.45 0,0.7 -0.11,1.45 -0.33,2.25 -0.25,0.89 -0.67,1.78 -1.24,2.65l-0.98 0z"/>
    <polygon class="fil4 str0" points="31.62,62.98 41.82,62.98 41.82,73.18 31.62,73.18 "/>
    <polygon class="fil4 str0" points="50.56,62.98 60.76,62.98 60.76,73.18 50.56,73.18 "/>
    <polygon class="fil4 str0" points="69.51,62.98 79.71,62.98 79.71,73.18 69.51,73.18 "/>
    <polygon class="fil4 str0" points="88.45,62.98 98.66,62.98 98.66,73.18 88.45,73.18 "/>
    <g>
     <rect class="fil1" x="31.62" y="44.03" width="10.18" height="10.18"/>
     <g>
      <g>
       <path class="fil2" d="M31.99 44.44c0.02,-0.33 0.61,-0.24 0.85,0 1.36,1.46 2.52,3.13 4.07,4.4l4.52 3.68c0.59,0.48 -0.36,1.92 -1.24,1.37 -2.29,-1.46 -8.33,-6.62 -8.2,-9.45z"/>
       <path class="fil2" d="M41.26 44.46c0.33,0.02 0.46,0.46 0.22,0.69 -1.75,1.14 -3.13,2.53 -4.4,4.08l-3.68 4.52c-0.48,0.58 -1.92,-0.37 -1.36,-1.24 1.45,-2.3 6.39,-8.18 9.22,-8.05z"/>
      </g>
      <g>
       <path class="fil5" d="M32.3 44.09c-0.19,0.1 -0.83,0.43 -0.85,0.64 0.05,0.21 0.58,0.57 0.56,0.88 0.01,0.7 0.28,1.69 0.3,2.62 0.02,1.24 0.1,2.37 0.32,3.59 0.07,0.51 0.16,1.03 0.26,1.54 0.4,0.34 1.11,0.91 1.65,0.85 0.71,-0.38 0.8,-1.17 0.63,-1.88 -0.34,-1.12 -0.55,-2.08 -0.75,-3.23 -0.12,-0.69 -0.23,-2.24 -0.15,-2.92 0.07,-0.32 0.27,-0.81 0.48,-1.06 0.31,-0.38 -0.05,-0.65 -0.42,-0.75 -0.5,-0.13 -1.01,-0.23 -1.51,-0.33 -0.14,-0.02 -0.41,-0.04 -0.52,0.05z"/>
      </g>
      <path class="fil1" d="M33.15 44.03c0,4.28 0.11,6.22 1.47,10.16"/>
      <g>
       <path class="fil5" d="M35.64 43.98c-0.2,0.1 -0.84,0.43 -0.86,0.64 0.05,0.21 0.58,0.57 0.57,0.88 0,0.7 0.27,1.69 0.29,2.62 0.02,1.24 0.11,2.37 0.33,3.59 0.07,0.51 0.15,1.03 0.25,1.54 0.4,0.34 1.12,0.91 1.66,0.85 0.7,-0.38 0.79,-1.17 0.63,-1.88 -0.35,-1.12 -0.55,-2.08 -0.76,-3.22 -0.12,-0.7 -0.23,-2.25 -0.15,-2.93 0.08,-0.32 0.27,-0.81 0.48,-1.06 0.31,-0.38 -0.05,-0.65 -0.41,-0.75 -0.5,-0.13 -1.01,-0.23 -1.52,-0.33 -0.14,-0.02 -0.4,-0.04 -0.51,0.05z"/>
      </g>
      <path class="fil1" d="M36.49 43.92c0,4.28 0.1,6.22 1.46,10.16"/>
      <g>
       <path class="fil5" d="M38.9 44.06c-0.2,0.1 -0.84,0.42 -0.86,0.63 0.05,0.22 0.58,0.58 0.56,0.89 0.01,0.7 0.28,1.68 0.3,2.61 0.02,1.24 0.11,2.37 0.33,3.59 0.06,0.52 0.15,1.03 0.25,1.54 0.4,0.35 1.11,0.92 1.66,0.86 0.7,-0.38 0.79,-1.18 0.63,-1.89 -0.35,-1.12 -0.55,-2.07 -0.76,-3.22 -0.12,-0.7 -0.23,-2.24 -0.15,-2.92 0.07,-0.32 0.27,-0.81 0.48,-1.07 0.31,-0.38 -0.05,-0.65 -0.41,-0.74 -0.5,-0.13 -1.01,-0.24 -1.52,-0.34 -0.14,-0.01 -0.4,-0.03 -0.51,0.06z"/>
      </g>
      <path class="fil1" d="M39.75 43.99c0,4.29 0.1,6.22 1.46,10.16"/>
      <g>
       <path class="fil5" d="M36.03 53.83c0.19,-0.1 0.83,-0.43 0.86,-0.64 -0.06,-0.21 -0.59,-0.57 -0.57,-0.88 -0.01,-0.7 -0.27,-1.69 -0.3,-2.62 -0.01,-1.23 -0.1,-2.37 -0.32,-3.58 -0.07,-0.52 -0.16,-1.04 -0.26,-1.55 -0.4,-0.34 -1.11,-0.91 -1.65,-0.85 -0.7,0.38 -0.8,1.17 -0.63,1.89 0.34,1.11 0.55,2.07 0.75,3.22 0.12,0.7 0.24,2.24 0.15,2.92 -0.07,0.32 -0.27,0.81 -0.47,1.06 -0.31,0.39 0.04,0.65 0.41,0.75 0.5,0.13 1.01,0.23 1.52,0.34 0.14,0.01 0.4,0.03 0.51,-0.06z"/>
      </g>
      <path class="fil1" d="M35.18 53.89c0,-4.28 -0.11,-6.22 -1.47,-10.15"/>
      <g>
       <path class="fil5" d="M39.71 53.87c0.19,-0.1 0.83,-0.43 0.85,-0.64 -0.05,-0.21 -0.58,-0.57 -0.56,-0.88 -0.01,-0.7 -0.27,-1.69 -0.3,-2.62 -0.01,-1.24 -0.1,-2.37 -0.32,-3.59 -0.07,-0.51 -0.16,-1.03 -0.26,-1.54 -0.4,-0.34 -1.11,-0.91 -1.65,-0.85 -0.7,0.38 -0.8,1.17 -0.63,1.88 0.34,1.12 0.55,2.08 0.75,3.23 0.12,0.69 0.23,2.24 0.15,2.92 -0.07,0.32 -0.27,0.81 -0.47,1.06 -0.32,0.38 0.04,0.65 0.41,0.75 0.5,0.13 1.01,0.23 1.52,0.33 0.13,0.02 0.4,0.04 0.51,-0.05z"/>
      </g>
      <path class="fil1" d="M38.86 53.93c0,-4.28 -0.11,-6.22 -1.47,-10.16"/>
      <g>
       <path class="fil5" d="M34.6 53.71c0.14,-0.13 0.67,-0.62 0.65,-0.79 -0.11,-0.16 -0.7,-0.32 -0.76,-0.6 -0.25,-0.97 -0.56,-1.13 -0.67,-2.42 -0.06,-1.2 -0.03,-2.32 0.09,-3.5 0.07,-0.46 0.15,-0.91 0.23,-1.36 -0.27,-0.43 -0.71,-1.08 -1.21,-1.22 -0.8,0.05 -1.19,0.61 -1.28,1.36 -0.06,1.2 -0.08,2.53 0.05,3.73 0.12,1.12 0.36,2.33 0.47,3.37 0,0.34 -0.06,0.9 -0.19,1.22 -0.19,0.46 0.22,0.62 0.61,0.6 0.51,-0.03 1.03,-0.1 1.54,-0.18 0.13,-0.03 0.39,-0.1 0.47,-0.21z"/>
      </g>
      <path class="fil1" d="M33.81 54.04c-1.26,-3.7 -1.26,-6.78 -0.96,-10.22"/>
     </g>
    </g>
    <g>
     <rect class="fil1" x="69.51" y="25.09" width="10.18" height="10.18"/>
     <g>
      <path class="fil2" d="M69.88 25.49c0.02,-0.32 0.62,-0.23 0.85,0 1.36,1.47 2.53,3.14 4.08,4.4l4.51 3.69c0.59,0.47 -0.36,1.92 -1.24,1.36 -2.29,-1.46 -8.33,-6.62 -8.2,-9.45z"/>
      <path class="fil2" d="M79.15 25.52c0.33,0.01 0.46,0.46 0.23,0.69 -1.76,1.14 -3.14,2.53 -4.4,4.08l-3.69 4.51c-0.48,0.59 -1.92,-0.36 -1.36,-1.24 1.46,-2.29 6.4,-8.18 9.22,-8.04z"/>
     </g>
    </g>
    <g>
     <rect class="fil1" x="88.45" y="62.98" width="10.18" height="10.18"/>
     <g>
      <path class="fil2" d="M88.83 63.39c0.01,-0.33 0.61,-0.24 0.84,-0.01 1.36,1.47 2.53,3.14 4.08,4.4l4.52 3.69c0.59,0.48 -0.37,1.92 -1.24,1.36 -2.3,-1.46 -8.33,-6.62 -8.2,-9.44z"/>
      <path class="fil2" d="M98.1 63.41c0.33,0.01 0.45,0.46 0.22,0.69 -1.75,1.14 -3.13,2.53 -4.4,4.08l-3.68 4.51c-0.48,0.59 -1.92,-0.36 -1.37,-1.24 1.46,-2.29 6.4,-8.18 9.23,-8.04z"/>
     </g>
    </g>
    <g>
     <rect class="fil1" x="50.56" y="62.98" width="10.18" height="10.18"/>
     <g>
      <path class="fil2" d="M50.94 63.39c0.01,-0.33 0.61,-0.24 0.84,-0.01 1.36,1.47 2.53,3.14 4.08,4.4l4.52 3.69c0.58,0.48 -0.37,1.92 -1.24,1.36 -2.3,-1.46 -8.34,-6.62 -8.2,-9.44z"/>
      <path class="fil2" d="M60.21 63.41c0.33,0.01 0.45,0.46 0.22,0.69 -1.75,1.14 -3.14,2.53 -4.4,4.08l-3.68 4.51c-0.48,0.59 -1.92,-0.36 -1.37,-1.24 1.46,-2.29 6.4,-8.18 9.23,-8.04z"/>
     </g>
    </g>
    <g>
     <rect class="fil1" x="88.45" y="25.09" width="10.18" height="10.18"/>
     <g>
      <path class="fil2" d="M88.83 25.49c0.01,-0.32 0.61,-0.23 0.84,0 1.36,1.47 2.53,3.14 4.08,4.4l4.52 3.69c0.59,0.47 -0.37,1.92 -1.24,1.36 -2.3,-1.46 -8.33,-6.62 -8.2,-9.45z"/>
      <path class="fil2" d="M98.1 25.52c0.33,0.01 0.45,0.46 0.22,0.69 -1.75,1.14 -3.13,2.53 -4.4,4.08l-3.68 4.51c-0.48,0.59 -1.92,-0.36 -1.37,-1.24 1.46,-2.29 6.4,-8.18 9.23,-8.04z"/>
     </g>
    </g>
    <g>
     <rect class="fil1" x="50.19" y="43.62" width="10.18" height="10.18"/>
     <g>
      <path class="fil2" d="M50.56 44.03c0.02,-0.33 0.61,-0.23 0.85,0 1.36,1.47 2.52,3.13 4.07,4.4l4.52 3.68c0.59,0.48 -0.36,1.92 -1.24,1.37 -2.29,-1.46 -8.33,-6.62 -8.2,-9.45z"/>
      <path class="fil2" d="M59.83 44.05c0.33,0.02 0.46,0.46 0.22,0.69 -1.75,1.14 -3.13,2.53 -4.4,4.08l-3.68 4.52c-0.48,0.59 -1.92,-0.37 -1.37,-1.24 1.46,-2.3 6.4,-8.18 9.23,-8.05z"/>
     </g>
    </g>
   </g>
  </g>
  <polygon class="fil1 str1" points="0.25,0.25 132.38,0.25 132.38,89.69 0.25,89.69 "/>
 </g>
</svg>
