<?xml version="1.0" encoding="UTF-8"?>
<!DOCTYPE svg PUBLIC "-//W3C//DTD SVG 1.1//EN" "http://www.w3.org/Graphics/SVG/1.1/DTD/svg11.dtd">
<!-- Creator: CorelDRAW 2021 (64-Bit) -->
<svg xmlns="http://www.w3.org/2000/svg" xml:space="preserve" width="535px" height="362px" version="1.1" style="shape-rendering:geometricPrecision; text-rendering:geometricPrecision; image-rendering:optimizeQuality; fill-rule:evenodd; clip-rule:evenodd"
viewBox="0 0 131.77 89.2"
 xmlns:xlink="http://www.w3.org/1999/xlink"
 xmlns:xodm="http://www.corel.com/coreldraw/odm/2003">
 <defs>
  <style type="text/css">
   <![CDATA[
    .str0 {stroke:black;stroke-width:0.58;stroke-miterlimit:10}
    .fil1 {fill:none}
    .fil4 {fill:none;fill-rule:nonzero}
    .fil0 {fill:white}
    .fil2 {fill:#2B2A29;fill-rule:nonzero}
    .fil5 {fill:black;fill-rule:nonzero}
    .fil3 {fill:black;fill-rule:nonzero}
   ]]>
  </style>
   <clipPath id="id0">
    <path d="M0 0l131.77 0 0 89.2 -131.77 0 0 -89.2z"/>
   </clipPath>
 </defs>
 <g id="Ebene_x0020_1">
  <metadata id="CorelCorpID_0Corel-Layer"/>
  <polygon class="fil0" points="0,0 131.77,0 131.77,89.2 0,89.2 "/>
  <g style="clip-path:url(#id0)">
   <g id="_1615118823952">
    <g>
     <rect class="fil1" x="31.28" y="24.77" width="10.16" height="10.16"/>
     <g>
      <path class="fil2" d="M31.66 25.18c0.01,-0.33 0.61,-0.24 0.84,-0.01 1.35,1.47 2.52,3.13 4.06,4.39l4.51 3.67c0.58,0.48 -0.37,1.92 -1.24,1.37 -2.29,-1.46 -8.31,-6.6 -8.17,-9.42z"/>
      <path class="fil2" d="M40.9 25.2c0.33,0.01 0.45,0.46 0.22,0.69 -1.75,1.13 -3.13,2.52 -4.39,4.06l-3.67 4.51c-0.48,0.58 -1.91,-0.37 -1.36,-1.24 1.45,-2.29 6.38,-8.15 9.2,-8.02z"/>
     </g>
    </g>
    <path class="fil3" d="M37.46 17.41c-0.26,0.23 -0.52,0.39 -0.77,0.48 -0.25,0.1 -0.51,0.14 -0.8,0.14 -0.47,0 -0.82,-0.11 -1.08,-0.34 -0.25,-0.22 -0.37,-0.52 -0.37,-0.87 0,-0.21 0.04,-0.4 0.14,-0.57 0.09,-0.17 0.22,-0.31 0.37,-0.41 0.16,-0.11 0.33,-0.19 0.52,-0.24 0.14,-0.04 0.36,-0.07 0.64,-0.11 0.59,-0.07 1.02,-0.15 1.29,-0.25 0,-0.09 0.01,-0.16 0.01,-0.18 0,-0.3 -0.07,-0.5 -0.21,-0.62 -0.18,-0.16 -0.46,-0.25 -0.82,-0.25 -0.34,0 -0.59,0.07 -0.76,0.18 -0.16,0.12 -0.28,0.33 -0.36,0.64l-0.7 -0.1c0.06,-0.3 0.17,-0.55 0.32,-0.73 0.14,-0.19 0.36,-0.33 0.64,-0.43 0.27,-0.1 0.6,-0.15 0.96,-0.15 0.37,0 0.66,0.04 0.89,0.12 0.23,0.09 0.4,0.2 0.5,0.33 0.11,0.13 0.19,0.29 0.23,0.49 0.02,0.12 0.04,0.34 0.04,0.66l0 0.96c0,0.67 0.01,1.09 0.04,1.27 0.03,0.18 0.09,0.35 0.18,0.51l-0.76 0c-0.07,-0.15 -0.12,-0.33 -0.14,-0.53zm-0.05 -1.6c-0.27,0.11 -0.66,0.2 -1.19,0.27 -0.29,0.04 -0.5,0.09 -0.63,0.14 -0.12,0.06 -0.21,0.14 -0.28,0.24 -0.07,0.1 -0.1,0.21 -0.1,0.34 0,0.19 0.07,0.35 0.22,0.48 0.14,0.12 0.36,0.19 0.64,0.19 0.27,0 0.52,-0.06 0.74,-0.18 0.21,-0.12 0.37,-0.29 0.48,-0.5 0.07,-0.16 0.11,-0.4 0.11,-0.72l0.01 -0.26z"/>
    <path class="fil3" d="M54.17 17.94l-0.67 0 0 -5.87 0.72 0 0 2.1c0.31,-0.38 0.7,-0.57 1.17,-0.57 0.26,0 0.51,0.05 0.74,0.15 0.24,0.11 0.43,0.26 0.58,0.45 0.15,0.19 0.27,0.42 0.35,0.69 0.09,0.27 0.13,0.55 0.13,0.86 0,0.73 -0.18,1.29 -0.54,1.69 -0.36,0.4 -0.79,0.59 -1.3,0.59 -0.5,0 -0.89,-0.21 -1.18,-0.62l0 0.53zm0 -2.16c0,0.51 0.06,0.88 0.2,1.11 0.23,0.37 0.54,0.55 0.92,0.55 0.32,0 0.59,-0.13 0.82,-0.41 0.23,-0.27 0.34,-0.68 0.34,-1.22 0,-0.55 -0.11,-0.96 -0.33,-1.23 -0.22,-0.26 -0.48,-0.39 -0.79,-0.39 -0.32,0 -0.59,0.13 -0.82,0.41 -0.23,0.27 -0.34,0.67 -0.34,1.18z"/>
    <path class="fil3" d="M75.4 16.39l0.71 0.09c-0.08,0.49 -0.28,0.87 -0.6,1.14 -0.32,0.28 -0.71,0.41 -1.17,0.41 -0.58,0 -1.05,-0.19 -1.4,-0.57 -0.36,-0.38 -0.53,-0.92 -0.53,-1.63 0,-0.46 0.07,-0.86 0.22,-1.2 0.16,-0.35 0.39,-0.6 0.7,-0.78 0.31,-0.17 0.65,-0.25 1.01,-0.25 0.46,0 0.84,0.11 1.14,0.35 0.29,0.23 0.48,0.56 0.56,0.99l-0.7 0.11c-0.06,-0.29 -0.18,-0.5 -0.35,-0.65 -0.17,-0.14 -0.38,-0.21 -0.62,-0.21 -0.36,0 -0.66,0.13 -0.89,0.39 -0.22,0.26 -0.34,0.67 -0.34,1.23 0,0.57 0.11,0.99 0.33,1.25 0.22,0.25 0.51,0.38 0.86,0.38 0.28,0 0.52,-0.08 0.71,-0.26 0.19,-0.17 0.31,-0.44 0.36,-0.79z"/>
    <path class="fil3" d="M94.04 17.94l0 -0.54c-0.27,0.42 -0.66,0.63 -1.19,0.63 -0.34,0 -0.65,-0.09 -0.93,-0.28 -0.29,-0.18 -0.51,-0.44 -0.66,-0.78 -0.16,-0.33 -0.24,-0.72 -0.24,-1.15 0,-0.42 0.07,-0.81 0.22,-1.15 0.14,-0.35 0.35,-0.61 0.63,-0.8 0.28,-0.18 0.6,-0.27 0.95,-0.27 0.26,0 0.49,0.05 0.68,0.16 0.2,0.11 0.37,0.25 0.49,0.42l0 -2.11 0.72 0 0 5.87 -0.67 0zm-2.28 -2.12c0,0.54 0.12,0.95 0.35,1.22 0.23,0.27 0.5,0.4 0.81,0.4 0.32,0 0.59,-0.13 0.81,-0.38 0.22,-0.26 0.33,-0.65 0.33,-1.18 0,-0.58 -0.11,-1.01 -0.34,-1.28 -0.22,-0.27 -0.5,-0.41 -0.83,-0.41 -0.32,0 -0.59,0.13 -0.81,0.4 -0.21,0.26 -0.32,0.67 -0.32,1.23z"/>
    <path class="fil3" d="M113.2 16.57l0.74 0.09c-0.11,0.44 -0.33,0.77 -0.65,1.01 -0.31,0.24 -0.72,0.36 -1.21,0.36 -0.62,0 -1.12,-0.19 -1.48,-0.57 -0.36,-0.38 -0.54,-0.92 -0.54,-1.61 0,-0.71 0.18,-1.27 0.55,-1.66 0.36,-0.4 0.84,-0.59 1.43,-0.59 0.57,0 1.03,0.19 1.39,0.58 0.36,0.38 0.54,0.93 0.54,1.63 0,0.04 0,0.1 -0.01,0.19l-3.17 0c0.03,0.47 0.16,0.82 0.4,1.07 0.24,0.25 0.53,0.37 0.89,0.37 0.26,0 0.49,-0.07 0.67,-0.21 0.19,-0.14 0.34,-0.36 0.45,-0.66zm-2.37 -1.16l2.38 0c-0.04,-0.36 -0.13,-0.63 -0.28,-0.81 -0.22,-0.27 -0.52,-0.41 -0.89,-0.41 -0.33,0 -0.61,0.11 -0.83,0.33 -0.23,0.22 -0.35,0.52 -0.38,0.89z"/>
    <path class="fil3" d="M17.59 33.02l-1.41 0 0 -5.31c-0.51,0.48 -1.11,0.84 -1.81,1.07l0 -1.28c0.37,-0.12 0.76,-0.35 1.19,-0.69 0.43,-0.33 0.73,-0.72 0.89,-1.17l1.14 0 0 7.38z"/>
    <path id="_1" class="fil3" d="M19.6 35.18c0.28,-0.6 0.47,-1.05 0.59,-1.37 0.11,-0.32 0.22,-0.68 0.31,-1.1 0.1,-0.41 0.17,-0.8 0.22,-1.17 0.04,-0.38 0.07,-0.76 0.07,-1.15 0,-0.79 -0.09,-1.54 -0.26,-2.25 -0.17,-0.71 -0.48,-1.57 -0.94,-2.58l0.95 0c0.51,0.72 0.9,1.48 1.18,2.28 0.28,0.8 0.42,1.62 0.42,2.45 0,0.69 -0.11,1.44 -0.33,2.24 -0.25,0.89 -0.66,1.77 -1.24,2.65l-0.97 0z"/>
    <polygon class="fil4 str0" points="31.28,24.77 41.45,24.77 41.45,34.94 31.28,34.94 "/>
    <polygon class="fil4 str0" points="50.17,24.77 60.35,24.77 60.35,34.94 50.17,34.94 "/>
    <polygon class="fil4 str0" points="69.07,24.77 79.24,24.77 79.24,34.94 69.07,34.94 "/>
    <polygon class="fil4 str0" points="87.96,24.77 98.13,24.77 98.13,34.94 87.96,34.94 "/>
    <polygon class="fil4 str0" points="106.85,24.77 117.02,24.77 117.02,34.94 106.85,34.94 "/>
    <path class="fil3" d="M18.75 50.61l0 1.3 -4.94 0c0.06,-0.49 0.22,-0.96 0.48,-1.4 0.27,-0.44 0.8,-1.03 1.59,-1.77 0.63,-0.59 1.02,-0.99 1.16,-1.2 0.19,-0.29 0.29,-0.58 0.29,-0.86 0,-0.32 -0.08,-0.56 -0.25,-0.73 -0.17,-0.16 -0.4,-0.25 -0.7,-0.25 -0.29,0 -0.52,0.09 -0.7,0.27 -0.17,0.17 -0.27,0.47 -0.3,0.88l-1.4 -0.14c0.08,-0.78 0.34,-1.33 0.78,-1.67 0.45,-0.34 1,-0.51 1.66,-0.51 0.72,0 1.29,0.2 1.71,0.59 0.41,0.39 0.62,0.88 0.62,1.46 0,0.33 -0.06,0.65 -0.18,0.95 -0.12,0.3 -0.31,0.61 -0.57,0.94 -0.16,0.22 -0.47,0.53 -0.92,0.94 -0.44,0.41 -0.73,0.68 -0.84,0.81 -0.12,0.13 -0.22,0.27 -0.29,0.39l2.8 0z"/>
    <path id="_1_0" class="fil3" d="M19.6 54.07c0.28,-0.6 0.47,-1.05 0.59,-1.37 0.11,-0.32 0.22,-0.68 0.31,-1.09 0.1,-0.42 0.17,-0.81 0.22,-1.18 0.04,-0.37 0.07,-0.76 0.07,-1.15 0,-0.79 -0.09,-1.54 -0.26,-2.25 -0.17,-0.71 -0.48,-1.57 -0.94,-2.58l0.95 0c0.51,0.72 0.9,1.48 1.18,2.28 0.28,0.81 0.42,1.62 0.42,2.45 0,0.7 -0.11,1.44 -0.33,2.24 -0.25,0.89 -0.66,1.78 -1.24,2.65l-0.97 0z"/>
    <polygon class="fil4 str0" points="31.28,43.66 41.45,43.66 41.45,53.83 31.28,53.83 "/>
    <polygon class="fil4 str0" points="50.17,43.66 60.35,43.66 60.35,53.83 50.17,53.83 "/>
    <polygon class="fil4 str0" points="69.07,43.66 79.24,43.66 79.24,53.83 69.07,53.83 "/>
    <path class="fil3" d="M13.95 68.86l1.36 -0.16c0.04,0.34 0.16,0.61 0.35,0.79 0.19,0.19 0.42,0.28 0.69,0.28 0.29,0 0.53,-0.11 0.73,-0.33 0.19,-0.22 0.29,-0.52 0.29,-0.89 0,-0.36 -0.09,-0.64 -0.28,-0.85 -0.19,-0.2 -0.42,-0.31 -0.7,-0.31 -0.17,0 -0.39,0.04 -0.64,0.11l0.16 -1.14c0.38,0.01 0.67,-0.08 0.87,-0.25 0.2,-0.18 0.29,-0.41 0.29,-0.7 0,-0.25 -0.07,-0.45 -0.22,-0.6 -0.14,-0.14 -0.34,-0.22 -0.58,-0.22 -0.24,0 -0.45,0.09 -0.62,0.25 -0.17,0.17 -0.27,0.42 -0.31,0.74l-1.29 -0.22c0.09,-0.45 0.23,-0.81 0.41,-1.08 0.18,-0.26 0.43,-0.47 0.76,-0.63 0.32,-0.15 0.69,-0.23 1.09,-0.23 0.69,0 1.25,0.23 1.66,0.67 0.35,0.36 0.52,0.77 0.52,1.23 0,0.64 -0.35,1.16 -1.06,1.55 0.42,0.09 0.76,0.29 1.01,0.6 0.25,0.32 0.38,0.7 0.38,1.14 0,0.64 -0.24,1.19 -0.71,1.65 -0.47,0.45 -1.05,0.68 -1.75,0.68 -0.67,0 -1.22,-0.19 -1.65,-0.58 -0.44,-0.38 -0.69,-0.88 -0.76,-1.5z"/>
    <path id="_1_1" class="fil3" d="M19.6 72.96c0.28,-0.59 0.47,-1.05 0.59,-1.36 0.11,-0.32 0.22,-0.69 0.31,-1.1 0.1,-0.42 0.17,-0.81 0.22,-1.18 0.04,-0.37 0.07,-0.75 0.07,-1.14 0,-0.8 -0.09,-1.55 -0.26,-2.26 -0.17,-0.71 -0.48,-1.57 -0.94,-2.58l0.95 0c0.51,0.72 0.9,1.48 1.18,2.28 0.28,0.81 0.42,1.62 0.42,2.45 0,0.7 -0.11,1.45 -0.33,2.24 -0.25,0.9 -0.66,1.78 -1.24,2.65l-0.97 0z"/>
    <polygon class="fil4 str0" points="31.28,62.55 41.45,62.55 41.45,72.73 31.28,72.73 "/>
    <polygon class="fil4 str0" points="50.17,62.55 60.35,62.55 60.35,72.73 50.17,72.73 "/>
    <polygon class="fil4 str0" points="69.07,62.55 79.24,62.55 79.24,72.73 69.07,72.73 "/>
    <polygon class="fil4 str0" points="87.96,62.55 98.13,62.55 98.13,72.73 87.96,72.73 "/>
    <g>
     <rect class="fil1" x="31.28" y="43.66" width="10.16" height="10.16"/>
     <g>
      <g>
       <path class="fil2" d="M31.66 44.07c0.01,-0.33 0.61,-0.24 0.84,0 1.35,1.46 2.52,3.12 4.06,4.38l4.51 3.68c0.58,0.47 -0.37,1.91 -1.24,1.36 -2.29,-1.46 -8.31,-6.6 -8.17,-9.42z"/>
       <path class="fil2" d="M40.9 44.09c0.33,0.02 0.45,0.46 0.22,0.69 -1.75,1.14 -3.13,2.52 -4.39,4.07l-3.67 4.5c-0.48,0.59 -1.91,-0.36 -1.36,-1.23 1.45,-2.29 6.38,-8.16 9.2,-8.03z"/>
      </g>
      <g>
       <path class="fil5" d="M31.97 43.72c-0.2,0.1 -0.83,0.43 -0.86,0.63 0.06,0.22 0.58,0.58 0.57,0.89 0,0.7 0.27,1.68 0.29,2.61 0.02,1.23 0.11,2.36 0.33,3.57 0.06,0.52 0.15,1.03 0.25,1.54 0.4,0.35 1.11,0.91 1.65,0.85 0.7,-0.38 0.79,-1.17 0.63,-1.88 -0.34,-1.11 -0.55,-2.07 -0.75,-3.21 -0.12,-0.7 -0.24,-2.24 -0.15,-2.91 0.07,-0.32 0.27,-0.81 0.47,-1.06 0.31,-0.39 -0.04,-0.65 -0.41,-0.75 -0.5,-0.13 -1.01,-0.23 -1.51,-0.33 -0.14,-0.02 -0.41,-0.04 -0.51,0.05z"/>
      </g>
      <path class="fil1" d="M32.81 43.66c0,4.27 0.11,6.2 1.47,10.13"/>
      <g>
       <path class="fil5" d="M35.29 43.61c-0.19,0.1 -0.83,0.43 -0.85,0.64 0.05,0.21 0.58,0.57 0.56,0.88 0.01,0.7 0.27,1.68 0.3,2.61 0.01,1.23 0.1,2.36 0.32,3.58 0.07,0.51 0.15,1.02 0.26,1.53 0.39,0.35 1.1,0.91 1.65,0.85 0.69,-0.37 0.79,-1.17 0.62,-1.88 -0.34,-1.11 -0.55,-2.06 -0.75,-3.21 -0.12,-0.7 -0.23,-2.23 -0.15,-2.91 0.07,-0.32 0.27,-0.81 0.48,-1.06 0.31,-0.38 -0.05,-0.65 -0.41,-0.75 -0.5,-0.13 -1.01,-0.23 -1.52,-0.33 -0.14,-0.02 -0.4,-0.04 -0.51,0.05z"/>
      </g>
      <path class="fil1" d="M36.14 43.55c0,4.27 0.1,6.2 1.46,10.13"/>
      <g>
       <path class="fil5" d="M38.54 43.69c-0.19,0.1 -0.83,0.42 -0.85,0.63 0.05,0.22 0.58,0.58 0.56,0.88 0.01,0.7 0.27,1.68 0.3,2.61 0.01,1.24 0.1,2.36 0.32,3.58 0.07,0.51 0.15,1.03 0.26,1.54 0.39,0.34 1.1,0.91 1.65,0.85 0.69,-0.38 0.79,-1.17 0.62,-1.88 -0.34,-1.12 -0.55,-2.07 -0.75,-3.21 -0.12,-0.7 -0.23,-2.24 -0.15,-2.92 0.07,-0.32 0.27,-0.81 0.48,-1.06 0.31,-0.38 -0.05,-0.65 -0.41,-0.75 -0.5,-0.12 -1.01,-0.23 -1.52,-0.33 -0.14,-0.01 -0.4,-0.03 -0.51,0.06z"/>
      </g>
      <path class="fil1" d="M39.39 43.62c0,4.28 0.1,6.21 1.46,10.13"/>
      <g>
       <path class="fil5" d="M35.68 53.43c0.19,-0.1 0.83,-0.42 0.86,-0.63 -0.06,-0.22 -0.58,-0.58 -0.57,-0.88 0,-0.7 -0.27,-1.68 -0.29,-2.61 -0.02,-1.24 -0.11,-2.36 -0.33,-3.58 -0.06,-0.52 -0.15,-1.03 -0.25,-1.54 -0.4,-0.34 -1.11,-0.91 -1.65,-0.85 -0.7,0.38 -0.79,1.17 -0.63,1.88 0.34,1.12 0.55,2.07 0.75,3.21 0.12,0.7 0.23,2.24 0.15,2.92 -0.07,0.32 -0.27,0.81 -0.47,1.06 -0.31,0.38 0.04,0.65 0.41,0.74 0.5,0.13 1,0.24 1.51,0.34 0.14,0.01 0.4,0.03 0.51,-0.06z"/>
      </g>
      <path class="fil1" d="M34.84 53.5c0,-4.28 -0.11,-6.21 -1.47,-10.13"/>
      <g>
       <path class="fil5" d="M39.35 53.47c0.19,-0.1 0.83,-0.42 0.85,-0.63 -0.05,-0.22 -0.58,-0.58 -0.56,-0.89 -0.01,-0.69 -0.27,-1.68 -0.3,-2.6 -0.01,-1.24 -0.1,-2.37 -0.32,-3.58 -0.07,-0.52 -0.15,-1.03 -0.25,-1.54 -0.4,-0.34 -1.11,-0.91 -1.65,-0.85 -0.7,0.38 -0.8,1.17 -0.63,1.88 0.34,1.11 0.55,2.07 0.75,3.21 0.12,0.7 0.23,2.24 0.15,2.91 -0.07,0.33 -0.27,0.81 -0.48,1.07 -0.31,0.38 0.05,0.65 0.42,0.74 0.5,0.13 1,0.23 1.51,0.34 0.14,0.01 0.4,0.03 0.51,-0.06z"/>
      </g>
      <path class="fil1" d="M38.5 53.54c0,-4.28 -0.1,-6.21 -1.46,-10.13"/>
      <g>
       <path class="fil5" d="M34.26 53.31c0.14,-0.13 0.67,-0.61 0.64,-0.78 -0.1,-0.16 -0.7,-0.32 -0.75,-0.6 -0.26,-0.97 -0.56,-1.13 -0.68,-2.42 -0.06,-1.19 -0.02,-2.31 0.1,-3.49 0.07,-0.45 0.15,-0.91 0.23,-1.36 -0.27,-0.42 -0.71,-1.07 -1.21,-1.21 -0.8,0.05 -1.18,0.61 -1.28,1.36 -0.06,1.2 -0.08,2.52 0.05,3.71 0.12,1.13 0.37,2.33 0.47,3.37 0,0.34 -0.06,0.9 -0.19,1.21 -0.19,0.46 0.22,0.63 0.61,0.6 0.51,-0.03 1.03,-0.1 1.54,-0.18 0.13,-0.03 0.39,-0.1 0.47,-0.21z"/>
      </g>
      <path class="fil1" d="M33.47 53.64c-1.25,-3.68 -1.25,-6.75 -0.96,-10.19"/>
     </g>
    </g>
    <g>
     <rect class="fil1" x="69.07" y="24.77" width="10.16" height="10.16"/>
     <g>
      <path class="fil2" d="M69.44 25.18c0.02,-0.33 0.61,-0.24 0.84,-0.01 1.36,1.47 2.52,3.13 4.07,4.39l4.5 3.67c0.59,0.48 -0.36,1.92 -1.23,1.37 -2.29,-1.46 -8.31,-6.6 -8.18,-9.42z"/>
      <path class="fil2" d="M78.69 25.2c0.32,0.01 0.45,0.46 0.22,0.69 -1.75,1.13 -3.13,2.52 -4.39,4.06l-3.67 4.51c-0.48,0.58 -1.92,-0.37 -1.37,-1.24 1.46,-2.29 6.39,-8.15 9.21,-8.02z"/>
     </g>
    </g>
    <g>
     <rect class="fil1" x="87.96" y="62.55" width="10.16" height="10.16"/>
     <g>
      <path class="fil2" d="M88.33 62.96c0.02,-0.33 0.61,-0.23 0.85,0 1.35,1.46 2.52,3.13 4.06,4.39l4.51 3.67c0.58,0.48 -0.37,1.92 -1.24,1.36 -2.29,-1.45 -8.31,-6.6 -8.18,-9.42z"/>
      <path class="fil2" d="M97.58 62.98c0.33,0.02 0.45,0.46 0.22,0.69 -1.75,1.14 -3.13,2.52 -4.39,4.07l-3.67 4.5c-0.48,0.59 -1.92,-0.36 -1.36,-1.23 1.45,-2.29 6.38,-8.16 9.2,-8.03z"/>
     </g>
    </g>
    <g>
     <rect class="fil1" x="50.17" y="62.55" width="10.16" height="10.16"/>
     <g>
      <path class="fil2" d="M50.55 62.96c0.01,-0.33 0.61,-0.23 0.84,0 1.36,1.46 2.52,3.13 4.07,4.39l4.5 3.67c0.59,0.48 -0.36,1.92 -1.23,1.36 -2.29,-1.45 -8.31,-6.6 -8.18,-9.42z"/>
      <path class="fil2" d="M59.79 62.98c0.33,0.02 0.46,0.46 0.22,0.69 -1.74,1.14 -3.12,2.52 -4.38,4.07l-3.68 4.5c-0.47,0.59 -1.91,-0.36 -1.36,-1.23 1.46,-2.29 6.38,-8.16 9.2,-8.03z"/>
     </g>
    </g>
    <g>
     <rect class="fil1" x="87.96" y="24.77" width="10.16" height="10.16"/>
     <g>
      <path class="fil2" d="M88.33 25.18c0.02,-0.33 0.61,-0.24 0.85,-0.01 1.35,1.47 2.52,3.13 4.06,4.39l4.51 3.67c0.58,0.48 -0.37,1.92 -1.24,1.37 -2.29,-1.46 -8.31,-6.6 -8.18,-9.42z"/>
      <path class="fil2" d="M97.58 25.2c0.33,0.01 0.45,0.46 0.22,0.69 -1.75,1.13 -3.13,2.52 -4.39,4.06l-3.67 4.51c-0.48,0.58 -1.92,-0.37 -1.36,-1.24 1.45,-2.29 6.38,-8.15 9.2,-8.02z"/>
     </g>
    </g>
    <g>
     <rect class="fil1" x="49.8" y="43.25" width="10.16" height="10.16"/>
     <g>
      <path class="fil2" d="M50.17 43.66c0.02,-0.33 0.61,-0.23 0.85,0 1.35,1.46 2.52,3.13 4.06,4.39l4.51 3.67c0.58,0.48 -0.37,1.92 -1.24,1.36 -2.29,-1.45 -8.31,-6.6 -8.18,-9.42z"/>
      <path class="fil2" d="M59.42 43.68c0.33,0.02 0.45,0.46 0.22,0.69 -1.75,1.14 -3.13,2.52 -4.39,4.07l-3.67 4.5c-0.48,0.59 -1.92,-0.36 -1.36,-1.23 1.45,-2.29 6.38,-8.16 9.2,-8.03z"/>
     </g>
    </g>
   </g>
  </g>
  <polygon class="fil1" points="0,0 131.77,0 131.77,89.2 0,89.2 "/>
 </g>
</svg>
