<?xml version="1.0" encoding="UTF-8"?>
<!DOCTYPE svg PUBLIC "-//W3C//DTD SVG 1.1//EN" "http://www.w3.org/Graphics/SVG/1.1/DTD/svg11.dtd">
<!-- Creator: CorelDRAW 2021 (64-Bit) -->
<svg xmlns="http://www.w3.org/2000/svg" xml:space="preserve" width="100px" height="100px" version="1.1" style="shape-rendering:geometricPrecision; text-rendering:geometricPrecision; image-rendering:optimizeQuality; fill-rule:evenodd; clip-rule:evenodd"
viewBox="0 0 18.67 18.67"
 xmlns:xlink="http://www.w3.org/1999/xlink"
 xmlns:xodm="http://www.corel.com/coreldraw/odm/2003">
 <defs>
  <style type="text/css">
   <![CDATA[
    .fil3 {fill:none}
    .fil0 {fill:white}
    .fil1 {fill:#2B2A29;fill-rule:nonzero}
    .fil2 {fill:black;fill-rule:nonzero}
   ]]>
  </style>
   <clipPath id="id0">
    <path d="M0 0l18.67 0 0 18.67 -18.67 0 0 -18.67z"/>
   </clipPath>
 </defs>
 <g id="Ebene_x0020_1">
  <metadata id="CorelCorpID_0Corel-Layer"/>
  <polygon class="fil0" points="0,0 18.67,0 18.67,18.67 0,18.67 "/>
  <g style="clip-path:url(#id0)">
   <g id="_1614361959280">
    <g>
     <g>
      <path id="_1" class="fil1" d="M0.75 0.81c0.03,-0.6 1.11,-0.43 1.53,-0.01 2.48,2.67 4.61,5.71 7.43,8.01l8.22 6.71c1.07,0.87 -0.66,3.49 -2.25,2.48 -4.18,-2.65 -15.18,-12.05 -14.93,-17.19z"/>
      <path class="fil1" d="M17.62 0.85c0.6,0.02 0.83,0.83 0.41,1.25 -3.19,2.08 -5.71,4.61 -8.01,7.43l-6.71 8.22c-0.87,1.07 -3.5,-0.66 -2.48,-2.25 2.65,-4.19 11.65,-14.9 16.79,-14.65z"/>
     </g>
     <g>
      <path class="fil2" d="M1.31 0.17c-0.35,0.18 -1.51,0.78 -1.56,1.16 0.1,0.39 1.06,1.05 1.03,1.61 0.02,1.27 0.5,3.07 0.54,4.76 0.03,2.26 0.19,4.32 0.59,6.53 0.13,0.95 0.29,1.88 0.47,2.81 0.73,0.63 2.03,1.66 3.01,1.56 1.28,-0.7 1.45,-2.14 1.15,-3.44 -0.63,-2.03 -1.01,-3.77 -1.37,-5.86 -0.22,-1.28 -0.43,-4.08 -0.28,-5.32 0.13,-0.59 0.49,-1.48 0.87,-1.94 0.57,-0.7 -0.08,-1.18 -0.75,-1.36 -0.91,-0.24 -1.84,-0.42 -2.76,-0.61 -0.26,-0.02 -0.74,-0.06 -0.94,0.1z"/>
     </g>
     <path class="fil3" d="M2.86 0.05c0,7.81 0.19,11.33 2.67,18.5"/>
     <g>
      <path class="fil2" d="M7.38 -0.03c-0.35,0.19 -1.51,0.78 -1.56,1.16 0.1,0.39 1.06,1.05 1.03,1.61 0.02,1.28 0.5,3.07 0.54,4.76 0.03,2.26 0.19,4.32 0.59,6.53 0.13,0.95 0.29,1.88 0.47,2.81 0.73,0.63 2.02,1.67 3.01,1.56 1.28,-0.7 1.45,-2.14 1.15,-3.44 -0.63,-2.03 -1.01,-3.77 -1.37,-5.86 -0.22,-1.27 -0.43,-4.08 -0.28,-5.32 0.13,-0.58 0.49,-1.48 0.87,-1.94 0.57,-0.69 -0.08,-1.18 -0.75,-1.36 -0.91,-0.23 -1.84,-0.42 -2.76,-0.61 -0.26,-0.02 -0.74,-0.06 -0.94,0.1z"/>
     </g>
     <path class="fil3" d="M8.93 -0.15c0,7.81 0.19,11.33 2.67,18.5"/>
     <g>
      <path class="fil2" d="M13.32 0.11c-0.35,0.18 -1.52,0.77 -1.56,1.15 0.09,0.4 1.06,1.05 1.03,1.62 0.01,1.27 0.5,3.06 0.54,4.76 0.03,2.25 0.19,4.31 0.59,6.53 0.12,0.94 0.28,1.88 0.46,2.81 0.73,0.63 2.03,1.66 3.02,1.55 1.27,-0.69 1.44,-2.13 1.14,-3.43 -0.62,-2.04 -1,-3.78 -1.37,-5.87 -0.22,-1.27 -0.42,-4.08 -0.27,-5.31 0.13,-0.59 0.49,-1.48 0.86,-1.94 0.57,-0.7 -0.08,-1.19 -0.75,-1.37 -0.91,-0.23 -1.84,-0.42 -2.76,-0.6 -0.25,-0.03 -0.73,-0.07 -0.93,0.1z"/>
     </g>
     <path class="fil3" d="M14.86 -0.01c0,7.8 0.19,11.33 2.68,18.49"/>
     <g>
      <path class="fil2" d="M8.1 17.9c0.35,-0.18 1.51,-0.77 1.56,-1.16 -0.1,-0.39 -1.06,-1.05 -1.03,-1.61 -0.02,-1.27 -0.5,-3.07 -0.54,-4.76 -0.03,-2.25 -0.19,-4.31 -0.59,-6.53 -0.13,-0.94 -0.29,-1.88 -0.47,-2.81 -0.73,-0.63 -2.02,-1.66 -3.01,-1.55 -1.28,0.69 -1.45,2.13 -1.15,3.43 0.63,2.03 1.01,3.78 1.37,5.86 0.22,1.28 0.43,4.09 0.28,5.32 -0.13,0.59 -0.49,1.48 -0.87,1.94 -0.57,0.7 0.08,1.19 0.75,1.36 0.91,0.24 1.84,0.43 2.76,0.61 0.26,0.03 0.74,0.06 0.94,-0.1z"/>
     </g>
     <path class="fil3" d="M6.55 18.02c0,-7.81 -0.19,-11.33 -2.67,-18.5"/>
     <g>
      <path class="fil2" d="M14.8 17.97c0.35,-0.18 1.51,-0.77 1.55,-1.16 -0.09,-0.39 -1.06,-1.05 -1.02,-1.61 -0.02,-1.27 -0.5,-3.06 -0.55,-4.76 -0.03,-2.25 -0.19,-4.31 -0.59,-6.53 -0.12,-0.94 -0.28,-1.88 -0.46,-2.81 -0.73,-0.63 -2.03,-1.66 -3.01,-1.55 -1.28,0.69 -1.45,2.13 -1.15,3.43 0.63,2.03 1,3.78 1.37,5.86 0.22,1.28 0.43,4.09 0.28,5.32 -0.14,0.59 -0.49,1.48 -0.87,1.94 -0.57,0.7 0.08,1.19 0.75,1.36 0.91,0.24 1.84,0.43 2.76,0.61 0.25,0.03 0.74,0.06 0.94,-0.1z"/>
     </g>
     <path class="fil3" d="M13.25 18.09c0,-7.81 -0.19,-11.33 -2.67,-18.5"/>
     <g>
      <path class="fil2" d="M5.49 17.67c0.26,-0.23 1.23,-1.11 1.18,-1.43 -0.19,-0.28 -1.28,-0.57 -1.37,-1.09 -0.47,-1.77 -1.03,-2.05 -1.23,-4.41 -0.11,-2.17 -0.05,-4.21 0.17,-6.37 0.12,-0.83 0.27,-1.65 0.42,-2.48 -0.49,-0.78 -1.3,-1.95 -2.21,-2.21 -1.45,0.08 -2.16,1.11 -2.33,2.47 -0.11,2.19 -0.14,4.61 0.09,6.79 0.22,2.05 0.67,4.24 0.85,6.14 0.01,0.62 -0.11,1.64 -0.34,2.21 -0.34,0.84 0.4,1.15 1.12,1.1 0.93,-0.06 1.88,-0.18 2.8,-0.33 0.24,-0.06 0.71,-0.18 0.85,-0.39z"/>
     </g>
     <path class="fil3" d="M4.06 18.27c-2.29,-6.72 -2.29,-12.32 -1.76,-18.6"/>
    </g>
   </g>
  </g>
  <polygon class="fil3" points="0,0 18.67,0 18.67,18.67 0,18.67 "/>
 </g>
</svg>
