<?xml version="1.0" encoding="UTF-8"?>
<!DOCTYPE svg PUBLIC "-//W3C//DTD SVG 1.1//EN" "http://www.w3.org/Graphics/SVG/1.1/DTD/svg11.dtd">
<!-- Creator: CorelDRAW 2021 (64-Bit) -->
<svg xmlns="http://www.w3.org/2000/svg" xml:space="preserve" width="100px" height="100px" version="1.1" style="shape-rendering:geometricPrecision; text-rendering:geometricPrecision; image-rendering:optimizeQuality; fill-rule:evenodd; clip-rule:evenodd"
viewBox="0 0 13.45 13.45"
 xmlns:xlink="http://www.w3.org/1999/xlink"
 xmlns:xodm="http://www.corel.com/coreldraw/odm/2003">
 <defs>
  <style type="text/css">
   <![CDATA[
    .str0 {stroke:#2B2A29;stroke-width:0.41;stroke-miterlimit:22.9256}
    .fil3 {fill:none}
    .fil0 {fill:white}
    .fil1 {fill:#2B2A29;fill-rule:nonzero}
    .fil2 {fill:black;fill-rule:nonzero}
   ]]>
  </style>
   <clipPath id="id0">
    <path d="M0 0l13.45 0 0 13.45 -13.45 0 0 -13.45z"/>
   </clipPath>
 </defs>
 <g id="Ebene_x0020_1">
  <metadata id="CorelCorpID_0Corel-Layer"/>
  <g>
  </g>
  <g style="clip-path:url(#id0)">
   <g>
    <rect class="fil0 str0" x="1.19" y="1.19" width="11.07" height="11.07"/>
    <g id="_1614631198976">
     <g>
      <path class="fil1" d="M1.6 1.64c0.02,-0.36 0.67,-0.26 0.92,-0.01 1.47,1.6 2.75,3.41 4.43,4.78l4.91 4.01c0.64,0.52 -0.4,2.09 -1.35,1.48 -2.49,-1.58 -9.05,-7.19 -8.91,-10.26z"/>
      <path class="fil1" d="M11.67 1.66c0.36,0.02 0.5,0.5 0.25,0.75 -1.91,1.24 -3.41,2.75 -4.78,4.43l-4.01 4.91c-0.52,0.64 -2.09,-0.4 -1.48,-1.34 1.58,-2.5 6.95,-8.89 10.02,-8.75z"/>
     </g>
     <g>
      <path class="fil2" d="M1.94 1.26c-0.21,0.11 -0.91,0.46 -0.93,0.69 0.06,0.23 0.63,0.62 0.61,0.96 0.01,0.76 0.3,1.83 0.33,2.84 0.01,1.35 0.11,2.58 0.35,3.9 0.07,0.56 0.17,1.12 0.28,1.68 0.43,0.37 1.2,0.99 1.79,0.93 0.77,-0.42 0.87,-1.28 0.69,-2.05 -0.38,-1.22 -0.6,-2.26 -0.82,-3.5 -0.13,-0.76 -0.25,-2.44 -0.17,-3.18 0.08,-0.35 0.3,-0.88 0.52,-1.16 0.34,-0.41 -0.05,-0.7 -0.44,-0.81 -0.55,-0.14 -1.1,-0.25 -1.65,-0.36 -0.16,-0.02 -0.44,-0.04 -0.56,0.06z"/>
     </g>
     <path class="fil3" d="M2.86 1.19c0,4.66 0.12,6.76 1.6,11.04"/>
     <g>
      <path class="fil2" d="M5.56 1.14c-0.21,0.11 -0.9,0.46 -0.93,0.69 0.06,0.23 0.63,0.63 0.61,0.96 0.01,0.76 0.3,1.83 0.33,2.84 0.02,1.35 0.11,2.58 0.35,3.9 0.07,0.56 0.17,1.12 0.28,1.68 0.43,0.37 1.21,0.99 1.8,0.93 0.76,-0.42 0.86,-1.28 0.68,-2.05 -0.37,-1.22 -0.6,-2.26 -0.82,-3.5 -0.13,-0.76 -0.25,-2.44 -0.16,-3.18 0.08,-0.35 0.29,-0.88 0.52,-1.15 0.33,-0.42 -0.05,-0.71 -0.45,-0.82 -0.55,-0.14 -1.1,-0.25 -1.65,-0.36 -0.15,-0.02 -0.44,-0.04 -0.56,0.06z"/>
     </g>
     <path class="fil3" d="M6.48 1.07c0,4.66 0.12,6.76 1.6,11.04"/>
     <g>
      <path class="fil2" d="M9.1 1.22c-0.21,0.11 -0.9,0.46 -0.93,0.69 0.06,0.23 0.64,0.63 0.62,0.96 0.01,0.76 0.3,1.83 0.32,2.84 0.02,1.35 0.11,2.58 0.35,3.9 0.08,0.57 0.17,1.12 0.28,1.68 0.43,0.37 1.21,0.99 1.8,0.93 0.76,-0.42 0.86,-1.28 0.68,-2.05 -0.37,-1.22 -0.6,-2.26 -0.81,-3.5 -0.14,-0.76 -0.26,-2.44 -0.17,-3.18 0.08,-0.35 0.29,-0.88 0.52,-1.15 0.34,-0.42 -0.05,-0.71 -0.45,-0.82 -0.54,-0.14 -1.1,-0.25 -1.65,-0.36 -0.15,-0.02 -0.44,-0.04 -0.56,0.06z"/>
     </g>
     <path class="fil3" d="M10.03 1.15c0,4.66 0.11,6.76 1.59,11.04"/>
     <g>
      <path class="fil2" d="M5.99 11.84c0.21,-0.11 0.9,-0.46 0.93,-0.69 -0.06,-0.24 -0.63,-0.63 -0.61,-0.96 -0.01,-0.76 -0.3,-1.83 -0.33,-2.84 -0.02,-1.35 -0.11,-2.58 -0.35,-3.9 -0.07,-0.57 -0.17,-1.12 -0.28,-1.68 -0.43,-0.37 -1.21,-0.99 -1.8,-0.93 -0.76,0.42 -0.86,1.28 -0.68,2.05 0.37,1.22 0.6,2.26 0.82,3.5 0.13,0.76 0.25,2.44 0.16,3.18 -0.08,0.35 -0.29,0.88 -0.52,1.15 -0.33,0.42 0.05,0.71 0.45,0.82 0.55,0.14 1.1,0.25 1.65,0.36 0.15,0.02 0.44,0.04 0.56,-0.06z"/>
     </g>
     <path class="fil3" d="M5.07 11.91c0,-4.66 -0.12,-6.76 -1.6,-11.04"/>
     <g>
      <path class="fil2" d="M9.99 11.88c0.21,-0.11 0.9,-0.46 0.93,-0.69 -0.06,-0.23 -0.64,-0.62 -0.62,-0.96 -0.01,-0.76 -0.3,-1.83 -0.32,-2.84 -0.02,-1.35 -0.11,-2.58 -0.35,-3.9 -0.08,-0.56 -0.17,-1.12 -0.28,-1.68 -0.43,-0.37 -1.21,-0.99 -1.8,-0.93 -0.76,0.42 -0.86,1.28 -0.68,2.05 0.37,1.22 0.6,2.26 0.81,3.5 0.13,0.76 0.26,2.44 0.17,3.18 -0.08,0.35 -0.29,0.88 -0.52,1.16 -0.34,0.41 0.05,0.7 0.45,0.81 0.54,0.14 1.1,0.25 1.65,0.36 0.15,0.02 0.44,0.04 0.56,-0.06z"/>
     </g>
     <path class="fil3" d="M9.06 11.95c0,-4.66 -0.11,-6.76 -1.59,-11.04"/>
     <g>
      <path class="fil2" d="M4.43 11.71c0.16,-0.15 0.74,-0.67 0.71,-0.86 -0.11,-0.17 -0.77,-0.34 -0.82,-0.65 -0.28,-1.06 -0.61,-1.22 -0.74,-2.64 -0.06,-1.29 -0.03,-2.51 0.1,-3.79 0.08,-0.5 0.17,-0.99 0.26,-1.49 -0.3,-0.46 -0.78,-1.16 -1.32,-1.31 -0.87,0.04 -1.29,0.66 -1.4,1.47 -0.06,1.31 -0.08,2.75 0.06,4.05 0.13,1.23 0.4,2.53 0.51,3.67 0,0.37 -0.07,0.98 -0.21,1.32 -0.2,0.5 0.24,0.68 0.67,0.65 0.56,-0.03 1.12,-0.11 1.67,-0.19 0.15,-0.04 0.43,-0.11 0.51,-0.23z"/>
     </g>
     <path class="fil3" d="M3.58 12.06c-1.37,-4.01 -1.37,-7.35 -1.05,-11.1"/>
    </g>
   </g>
  </g>
  <polygon class="fil3" points="0,0 13.45,0 13.45,13.45 0,13.45 "/>
 </g>
</svg>
