<?xml version="1.0" encoding="UTF-8"?>
<!DOCTYPE svg PUBLIC "-//W3C//DTD SVG 1.1//EN" "http://www.w3.org/Graphics/SVG/1.1/DTD/svg11.dtd">
<!-- Creator: CorelDRAW 2021 (64-Bit) -->
<svg xmlns="http://www.w3.org/2000/svg" xml:space="preserve" width="100px" height="100px" version="1.1" style="shape-rendering:geometricPrecision; text-rendering:geometricPrecision; image-rendering:optimizeQuality; fill-rule:evenodd; clip-rule:evenodd"
viewBox="0 0 13.45 13.45"
 xmlns:xlink="http://www.w3.org/1999/xlink"
 xmlns:xodm="http://www.corel.com/coreldraw/odm/2003">
 <defs>
  <style type="text/css">
   <![CDATA[
    .str0 {stroke:#2B2A29;stroke-width:0.41;stroke-miterlimit:22.9256}
    .fil2 {fill:none}
    .fil0 {fill:white}
    .fil1 {fill:#2B2A29;fill-rule:nonzero}
   ]]>
  </style>
   <clipPath id="id0">
    <path d="M0 0l13.45 0 0 13.45 -13.45 0 0 -13.45z"/>
   </clipPath>
 </defs>
 <g id="Ebene_x0020_1">
  <metadata id="CorelCorpID_0Corel-Layer"/>
  <g>
  </g>
  <g style="clip-path:url(#id0)">
   <g>
    <rect class="fil0 str0" x="1.19" y="1.19" width="11.07" height="11.07"/>
    <g id="_1614757640208">
     <path class="fil1" d="M1.6 1.64c0.02,-0.36 0.67,-0.26 0.92,-0.01 1.47,1.6 2.75,3.41 4.43,4.78l4.91 4.01c0.64,0.52 -0.4,2.09 -1.35,1.48 -2.49,-1.58 -9.05,-7.19 -8.91,-10.26z"/>
     <path class="fil1" d="M11.67 1.66c0.36,0.02 0.5,0.5 0.25,0.75 -1.91,1.24 -3.41,2.75 -4.78,4.43l-4.01 4.91c-0.52,0.64 -2.09,-0.4 -1.48,-1.34 1.58,-2.5 6.95,-8.89 10.02,-8.75z"/>
    </g>
   </g>
  </g>
  <polygon class="fil2" points="0,0 13.45,0 13.45,13.45 0,13.45 "/>
 </g>
</svg>
