<?xml version="1.0" encoding="UTF-8"?>
<!DOCTYPE svg PUBLIC "-//W3C//DTD SVG 1.1//EN" "http://www.w3.org/Graphics/SVG/1.1/DTD/svg11.dtd">
<!-- Creator: CorelDRAW -->
<svg xmlns="http://www.w3.org/2000/svg" xml:space="preserve" width="24px" height="24px" style="shape-rendering:geometricPrecision; text-rendering:geometricPrecision; image-rendering:optimizeQuality; fill-rule:evenodd; clip-rule:evenodd"
viewBox="0 0 1.95596 1.95596"
 xmlns:xlink="http://www.w3.org/1999/xlink">
 <defs>
  <style type="text/css">
   <![CDATA[
    .fil1 {fill:none}
    .fil0 {fill:#9C0835}
   ]]>
  </style>
   <clipPath id="id0">
    <path d="M-0 0l1.95596 0 0 1.95596 -1.95596 0 0 -1.95596z"/>
   </clipPath>
 </defs>
 <g id="Ebene_x0020_1">
  <metadata id="CorelCorpID_0Corel-Layer"/>
  <g>
  </g>
  <g style="clip-path:url(#id0)">
   <g>
    <path class="fil0" d="M0.977978 0.0210359c0.528415,0 0.956942,0.428531 0.956942,0.956946 0,0.528411 -0.428527,0.956942 -0.956942,0.956942 -0.528415,0 -0.956942,-0.428531 -0.956942,-0.956942 0,-0.528415 0.428527,-0.956946 0.956942,-0.956946zm-0.134251 1.04646l-0.0282621 -0.421791 0 -0.000294581c-0.00249152,-0.0400524 -0.00445066,-0.0754661 -0.00582419,-0.106333 -0.00141612,-0.0316586 -0.00214015,-0.0559066 -0.00214015,-0.0726338 0,-0.0283082 0.00383666,-0.0539758 0.0115561,-0.077088 0.00807792,-0.0241947 0.0203084,-0.045039 0.0367162,-0.0626074 0.0165569,-0.0177246 0.0358537,-0.0310198 0.0578764,-0.039914 0.0214299,-0.00865643 0.044929,-0.0129616 0.0704901,-0.0129616 0.0659649,0 0.11077,0.0244609 0.134808,0.0733685 0.0102358,0.0208336 0.0177494,0.0455962 0.0225656,0.074238 0.00463877,0.027538 0.00693863,0.058682 0.00693863,0.0933645 0,0.0188071 -0.000578515,0.0389238 -0.00172845,0.060375 -0.0010825,0.0201416 -0.00269027,0.040347 -0.00481268,0.0606837l7.80818e-005 7.09834e-006 -0.0378803 0.434121 -3.54917e-005 -3.54917e-006c-0.00208691,0.027499 -0.00548347,0.0519137 -0.0101648,0.0732265 -0.004944,0.0225018 -0.0115348,0.0421748 -0.0197582,0.0589908l0 0.000145516c-0.00999092,0.0202019 -0.0236659,0.0356337 -0.0408687,0.0462031l-0.000141967 0c-0.0172277,0.0105801 -0.0371101,0.0159038 -0.0595267,0.0159038 -0.0228318,0 -0.0427143,-0.00511081 -0.0597006,-0.0153715 -0.0175507,-0.0106014 -0.0309914,-0.0260545 -0.0403718,-0.046409 -0.00736453,-0.0159855 -0.0135046,-0.0354136 -0.0184486,-0.0582952 -0.00460328,-0.0212844 -0.00833346,-0.0465296 -0.0112225,-0.0757571l-0.000141967 -0.00116768zm0.135 0.614585c-0.0220794,0 -0.0431544,-0.00375857 -0.0632072,-0.0112118 -0.019918,-0.00740357 -0.0382601,-0.0183847 -0.0550157,-0.0328831 -0.0178168,-0.0154141 -0.0311688,-0.0339798 -0.0400773,-0.055612 -0.00863159,-0.0209685 -0.0129261,-0.0442298 -0.0129261,-0.0697199 0,-0.0229099 0.00412769,-0.0445031 0.0124328,-0.0648079 0.00837605,-0.0204716 0.0206029,-0.0387534 0.0367162,-0.0548631 0.016312,-0.016312 0.0346683,-0.0285886 0.0550867,-0.0368653 0.0202516,-0.00820569 0.0420648,-0.0122837 0.0654858,-0.0122837 0.0231335,0 0.0449041,0.004078 0.0653012,0.0122837 0.0203722,0.00819504 0.0388599,0.0203758 0.0554345,0.0365707 0.0167698,0.0163865 0.0293729,0.0346683 0.0378306,0.0548631 0.00845768,0.0201877 0.0126634,0.0418802 0.0126634,0.0651025 0,0.051935 -0.0174726,0.0937762 -0.0524142,0.124739 -0.0167521,0.0148497 -0.0348316,0.025987 -0.0543236,0.0334084l-0.000145516 0c-0.0197618,0.0075136 -0.0406877,0.0112793 -0.0628416,0.0112793z"/>
   </g>
  </g>
  <polygon class="fil1" points="-0,0 1.95596,0 1.95596,1.95596 -0,1.95596 "/>
 </g>
</svg>
