<?xml version="1.0" encoding="UTF-8" standalone="no"?>
<!-- Generator: Adobe Illustrator 15.1.0, SVG Export Plug-In  -->

<svg
   xmlns:a="http://ns.adobe.com/AdobeSVGViewerExtensions/3.0/"
   xmlns:dc="http://purl.org/dc/elements/1.1/"
   xmlns:cc="http://creativecommons.org/ns#"
   xmlns:rdf="http://www.w3.org/1999/02/22-rdf-syntax-ns#"
   xmlns:svg="http://www.w3.org/2000/svg"
   xmlns="http://www.w3.org/2000/svg"
   xmlns:sodipodi="http://sodipodi.sourceforge.net/DTD/sodipodi-0.dtd"
   xmlns:inkscape="http://www.inkscape.org/namespaces/inkscape"
   version="1.1"
   x="0px"
   y="0px"
   width="24px"
   height="24px"
   viewBox="0 0 24 24"
   style="overflow:visible;enable-background:new 0 0 24 24;"
   xml:space="preserve"
   preserveAspectRatio="xMinYMid meet"
   id="svg2"
   inkscape:version="0.48.3.1 r9886"
   sodipodi:docname="icon.svg"><metadata
   id="metadata82"><rdf:RDF><cc:Work
       rdf:about=""><dc:format>image/svg+xml</dc:format><dc:type
         rdf:resource="http://purl.org/dc/dcmitype/StillImage" /><dc:title></dc:title></cc:Work></rdf:RDF></metadata><sodipodi:namedview
   pagecolor="#ffffff"
   bordercolor="#666666"
   borderopacity="1"
   objecttolerance="10"
   gridtolerance="10"
   guidetolerance="10"
   inkscape:pageopacity="0"
   inkscape:pageshadow="2"
   inkscape:window-width="1502"
   inkscape:window-height="913"
   id="namedview80"
   showgrid="false"
   inkscape:zoom="19.677203"
   inkscape:cx="2.9021381"
   inkscape:cy="11.99896"
   inkscape:window-x="28"
   inkscape:window-y="0"
   inkscape:window-maximized="0"
   inkscape:current-layer="svg2" />
<defs
   id="defs4">
</defs>
<linearGradient
   id="SVGID_1_"
   gradientUnits="userSpaceOnUse"
   x1="11.9565"
   y1="0"
   x2="11.9565"
   y2="24.0005">
	<stop
   offset="0"
   style="stop-color:#95BFF8"
   id="stop7" />
	<stop
   offset="0.5569"
   style="stop-color:#84ADEF"
   id="stop9" />
	<stop
   offset="1"
   style="stop-color:#7CA4EB"
   id="stop11" />
	<a:midPointStop
   offset="0"
   style="stop-color:#95BFF8" />
	<a:midPointStop
   offset="0.4"
   style="stop-color:#95BFF8" />
	<a:midPointStop
   offset="1"
   style="stop-color:#7CA4EB" />
</linearGradient>
<polygon
   style="fill:url(#SVGID_1_);"
   points="14.4,0 13.4,0 3,0 2,0 2,24 3,24 21,24 22,24 22,7.9 "
   id="polygon13" />
<linearGradient
   id="SVGID_2_"
   gradientUnits="userSpaceOnUse"
   x1="11.9565"
   y1="1"
   x2="11.9565"
   y2="23.0005">
	<stop
   offset="0"
   style="stop-color:#E7F4FC"
   id="stop16" />
	<stop
   offset="1"
   style="stop-color:#DEEFFC"
   id="stop18" />
	<a:midPointStop
   offset="0"
   style="stop-color:#E7F4FC" />
	<a:midPointStop
   offset="0.5"
   style="stop-color:#E7F4FC" />
	<a:midPointStop
   offset="1"
   style="stop-color:#DEEFFC" />
</linearGradient>
<polygon
   style="fill:url(#SVGID_2_);"
   points="14,1 13,1 4,1 3,1 3,23 4,23 20,23 21,23 21,8.3 "
   id="polygon20" />
<linearGradient
   id="SVGID_3_"
   gradientUnits="userSpaceOnUse"
   x1="11.9565"
   y1="2"
   x2="11.9565"
   y2="22.0005">
	<stop
   offset="0"
   style="stop-color:#CEE9F9"
   id="stop23" />
	<stop
   offset="1"
   style="stop-color:#BBDFF8"
   id="stop25" />
	<a:midPointStop
   offset="0"
   style="stop-color:#CEE9F9" />
	<a:midPointStop
   offset="0.5"
   style="stop-color:#CEE9F9" />
	<a:midPointStop
   offset="1"
   style="stop-color:#BBDFF8" />
</linearGradient>
<polygon
   style="fill:url(#SVGID_3_);"
   points="13.6,2 12.6,2 5,2 4,2 4,22 5,22 19,22 20,22 20,8.7 "
   id="polygon27" />
<linearGradient
   id="SVGID_4_"
   gradientUnits="userSpaceOnUse"
   x1="17.2021"
   y1="0"
   x2="17.2021"
   y2="9.3594">
	<stop
   offset="0"
   style="stop-color:#95BFF8"
   id="stop30" />
	<stop
   offset="0.5569"
   style="stop-color:#84ADEF"
   id="stop32" />
	<stop
   offset="1"
   style="stop-color:#7CA4EB"
   id="stop34" />
	<a:midPointStop
   offset="0"
   style="stop-color:#95BFF8" />
	<a:midPointStop
   offset="0.4"
   style="stop-color:#95BFF8" />
	<a:midPointStop
   offset="1"
   style="stop-color:#7CA4EB" />
</linearGradient>
<path
   style="fill:url(#SVGID_4_);"
   d="M13,9c0,0,5.2-1.5,9,0.4c0-0.1,0-1.5,0-1.5L14.4,0c0,0-1.8,0-2,0C15.1,3.7,13,9,13,9z"
   id="path36" />
<linearGradient
   id="SVGID_5_"
   gradientUnits="userSpaceOnUse"
   x1="14.2793"
   y1="7.5449"
   x2="17.4074"
   y2="4.4168">
	<stop
   offset="0"
   style="stop-color:#E7F4FC"
   id="stop39" />
	<stop
   offset="0.5181"
   style="stop-color:#E5F3FC"
   id="stop41" />
	<stop
   offset="0.7045"
   style="stop-color:#DEF0FB"
   id="stop43" />
	<stop
   offset="0.8371"
   style="stop-color:#D3EBFA"
   id="stop45" />
	<stop
   offset="0.872"
   style="stop-color:#CEE9F9"
   id="stop47" />
	<stop
   offset="1"
   style="stop-color:#BDD8F0"
   id="stop49" />
	<a:midPointStop
   offset="0"
   style="stop-color:#E7F4FC" />
	<a:midPointStop
   offset="0.87"
   style="stop-color:#E7F4FC" />
	<a:midPointStop
   offset="0.872"
   style="stop-color:#CEE9F9" />
	<a:midPointStop
   offset="0.5"
   style="stop-color:#CEE9F9" />
	<a:midPointStop
   offset="1"
   style="stop-color:#BDD8F0" />
</linearGradient>
<path
   style="fill:url(#SVGID_5_);"
   d="M20.4,7.8c-0.9-0.2-2-0.3-3.1-0.3c-1.1,0-2.1,0.1-3,0.3c0.4-1.6,0.7-4.1-0.2-6.4L20.4,7.8z"
   id="path51" />



<rect
   style="fill:none;stroke:#1b1b1b;stroke-width:0.84138501;stroke-linejoin:round;stroke-miterlimit:4;stroke-opacity:1;stroke-dasharray:none"
   id="rect3580-2"
   width="9.2115278"
   height="7.9743433"
   x="6.5597348"
   y="11.629324"
   ry="0"
   transform="matrix(1,0,-0.0153138,0.99988274,0,0)" /><path
   style="fill:none;stroke:#1b1b1b;stroke-width:0.64646369;stroke-opacity:1"
   id="path4284"
   d="m 8.8154975,12.876799 c 0.077611,0.08499 0.1754108,0.149861 0.2738743,0.208138 0.12505,0.07508 0.2518312,0.147285 0.3738914,0.22742 0.1620044,0.09036 0.3144502,0.19682 0.4579898,0.314041 0.159322,0.149534 0.325834,0.291189 0.486194,0.439573 0.113383,0.117873 0.243927,0.216082 0.369845,0.319424 0.05639,0.04628 0.152472,0.133667 0.20644,0.182129 0.165306,0.175816 0.333487,0.348737 0.501318,0.522125 0.09382,0.118178 0.206832,0.218127 0.304007,0.333282 0.08238,0.095 0.162151,0.191487 0.234263,0.294567 0.06382,0.10723 0.131912,0.210477 0.219407,0.299857 0.0878,0.08987 0.170627,0.184616 0.248015,0.283572 0.04378,0.05832 0.08406,0.11849 0.121268,0.181154 0.02303,0.04469 0.04555,0.08948 0.06889,0.134034 0.02745,0.04866 0.04949,0.09978 0.07666,0.148662 0.03155,0.05029 0.05759,0.101698 0.07949,0.156913 0.02743,0.06504 0.06742,0.123234 0.09907,0.186043 0.02924,0.06043 0.0582,0.1214 0.08288,0.183884 0.02209,0.04281 0.04625,0.08488 0.07309,0.124908 0.0258,0.04168 0.04489,0.08709 0.06917,0.12955 0.0233,0.04307 0.04186,0.08871 0.06582,0.131406 0.02282,0.04642 0.04152,0.09525 0.05874,0.144107 0,0 -0.425948,0.235173 -0.425948,0.235173 l 0,0 c -0.01563,-0.04642 -0.03409,-0.09231 -0.05491,-0.136483 -0.0236,-0.04277 -0.04278,-0.0879 -0.06565,-0.131062 -0.02344,-0.04175 -0.04269,-0.08583 -0.06765,-0.126783 -0.02796,-0.04349 -0.05482,-0.08792 -0.0771,-0.134631 -0.02278,-0.0616 -0.05037,-0.121743 -0.07915,-0.18069 -0.0314,-0.06425 -0.07319,-0.122743 -0.102117,-0.188382 -0.02215,-0.05267 -0.04528,-0.103329 -0.07662,-0.151424 -0.02821,-0.04895 -0.04931,-0.101165 -0.07853,-0.149454 -0.02296,-0.04393 -0.04514,-0.08811 -0.06705,-0.132536 -0.03505,-0.06139 -0.07186,-0.121301 -0.113014,-0.178876 -0.07442,-0.0988 -0.154339,-0.193449 -0.242263,-0.280622 -0.0883,-0.09203 -0.159714,-0.196242 -0.225175,-0.305508 -0.07027,-0.102352 -0.14959,-0.197153 -0.229521,-0.292023 -0.09675,-0.113826 -0.207502,-0.214686 -0.29758,-0.334357 -0.160889,-0.176968 -0.324507,-0.35157 -0.490021,-0.524193 -0.04877,-0.04312 -0.154214,-0.137335 -0.205497,-0.178867 C 10.260055,14.527222 10.125621,14.430615 10.011347,14.310945 9.8508692,14.163834 9.6856835,14.02195 9.524674,13.875408 9.3796812,13.761053 9.2265171,13.657156 9.0641817,13.568782 8.9411028,13.491072 8.8151012,13.418355 8.6907131,13.342877 8.5898952,13.281605 8.4919605,13.215487 8.4030245,13.137684 c 0,0 0.412473,-0.260885 0.412473,-0.260885 z"
   inkscape:connector-curvature="0" /><path
   style="fill:none;stroke:#1b1b1b;stroke-width:0.64646369;stroke-opacity:1"
   id="path4290"
   d="m 14.061399,13.119784 c -0.145016,0.06358 -0.292557,0.120909 -0.43904,0.180984 -0.210983,0.07837 -0.419227,0.163163 -0.62355,0.257544 -0.03721,0.01785 -0.07477,0.03497 -0.111616,0.05355 -0.04095,0.02065 -0.08141,0.04228 -0.121744,0.0641 -0.04447,0.02406 -0.176063,0.09947 -0.132649,0.07356 0.574903,-0.34315 0.01096,0.0056 -0.08261,0.06585 -0.332491,0.215323 -0.630736,0.47628 -0.920892,0.744444 -0.241934,0.207717 -0.417888,0.47492 -0.615283,0.72215 -0.203824,0.246007 -0.429363,0.472798 -0.65344,0.700119 -0.225633,0.241101 -0.4726544,0.459241 -0.7247099,0.671895 -0.2702089,0.215778 -0.5279365,0.446139 -0.7803347,0.682294 -0.1193017,0.120281 -0.2393099,0.241502 -0.3447708,0.374463 -0.071711,0.09041 -0.1308766,0.188873 -0.1887137,0.288344 -0.056061,0.103954 -0.1179816,0.204442 -0.1740003,0.30839 -0.027384,0.05688 -0.066972,0.104926 -0.1082813,0.151956 0,0 -0.4482463,0.185899 -0.4482463,0.185899 l 0,0 c 0.045498,-0.04044 0.085274,-0.08843 0.1148449,-0.14168 0.065703,-0.102323 0.1222851,-0.211111 0.1872366,-0.314135 0.1505381,-0.255103 0.3323502,-0.476765 0.5460633,-0.682496 0.2498654,-0.235729 0.5047912,-0.466034 0.7723115,-0.681752 0.2542555,-0.212524 0.5075186,-0.426278 0.7325785,-0.670474 0.2213682,-0.225168 0.4436492,-0.45016 0.6466082,-0.692353 0.202828,-0.249174 0.382038,-0.52021 0.625162,-0.733387 0.290065,-0.269759 0.587619,-0.533055 0.918938,-0.751933 0.395141,-0.258256 0.800383,-0.503637 1.226659,-0.707177 0.206577,-0.0933 0.416539,-0.177941 0.628251,-0.258866 0.152404,-0.06213 0.30372,-0.126718 0.455644,-0.189949 0,0 -0.384416,0.298652 -0.384416,0.298652 z"
   inkscape:connector-curvature="0" /></svg>