<?xml version="1.0" encoding="UTF-8"?>
<!DOCTYPE svg PUBLIC "-//W3C//DTD SVG 1.1//EN" "http://www.w3.org/Graphics/SVG/1.1/DTD/svg11.dtd">
<!-- Creator: CorelDRAW 2021 (64-Bit) -->
<svg xmlns="http://www.w3.org/2000/svg" xml:space="preserve" width="24px" height="24px" version="1.1" style="shape-rendering:geometricPrecision; text-rendering:geometricPrecision; image-rendering:optimizeQuality; fill-rule:evenodd; clip-rule:evenodd"
viewBox="0 0 1 1"
 xmlns:xlink="http://www.w3.org/1999/xlink"
 xmlns:xodm="http://www.corel.com/coreldraw/odm/2003">
 <defs>
  <style type="text/css">
   <![CDATA[
    .str0 {stroke:#212529;stroke-width:0.05;stroke-miterlimit:22.9256}
    .str1 {stroke:#212529;stroke-width:0.05;stroke-linecap:round;stroke-linejoin:round;stroke-miterlimit:22.9256}
    .fil0 {fill:none}
    .fil1 {fill:#212529;fill-rule:nonzero}
   ]]>
  </style>
 </defs>
 <g id="Ebene_x0020_1">
  <metadata id="CorelCorpID_0Corel-Layer"/>
  <g id="_1347133898336">
   <rect class="fil0" width="1" height="1"/>
   <g>
    <g>
     <path class="fil0 str0" d="M0.82 0.34l0 0.5c0,0.04 -0.03,0.07 -0.07,0.07l-0.5 0c-0.04,0 -0.06,-0.03 -0.06,-0.07l0 -0.69c0,-0.04 0.02,-0.07 0.06,-0.07l0.31 0c0.03,0 0.06,0.03 0.06,0.07l0 0.06c0,0.04 0.03,0.07 0.07,0.07l0.06 0c0.04,0 0.07,0.03 0.07,0.06z"/>
     <path class="fil0 str0" d="M0.8 0.26l-0.16 -0.15c-0.01,-0.02 -0.03,-0.03 -0.05,-0.03l-0.34 0c-0.04,0 -0.06,0.03 -0.06,0.07l0 0.69c0,0.04 0.02,0.07 0.06,0.07l0.5 0c0.04,0 0.07,-0.03 0.07,-0.07l0 -0.53c0,-0.02 -0.01,-0.04 -0.02,-0.05z"/>
    </g>
    <rect class="fil0 str1" x="0.32" y="0.42" width="0.36" height="0.36" rx="0.02" ry="0.02"/>
    <g>
     <path class="fil1" d="M0.38 0.48c0,-0.01 0.01,-0.01 0.02,0 0.03,0.03 0.06,0.08 0.1,0.11l0.12 0.09c0.01,0.02 -0.01,0.05 -0.03,0.04 -0.06,-0.04 -0.22,-0.17 -0.21,-0.24z"/>
     <path class="fil1" d="M0.61 0.48c0.01,0 0.02,0.01 0.01,0.02 -0.04,0.02 -0.08,0.06 -0.11,0.1l-0.1 0.12c-0.01,0.01 -0.05,-0.01 -0.03,-0.04 0.04,-0.05 0.16,-0.21 0.23,-0.2z"/>
    </g>
   </g>
  </g>
 </g>
</svg>
