<?xml version="1.0" encoding="UTF-8"?>
<!DOCTYPE svg PUBLIC "-//W3C//DTD SVG 1.1//EN" "http://www.w3.org/Graphics/SVG/1.1/DTD/svg11.dtd">
<!-- Creator: CorelDRAW -->
<svg xmlns="http://www.w3.org/2000/svg" xml:space="preserve" width="24px" height="24px" style="shape-rendering:geometricPrecision; text-rendering:geometricPrecision; image-rendering:optimizeQuality; fill-rule:evenodd; clip-rule:evenodd"
viewBox="0 0 2.09611 2.09611"
 xmlns:xlink="http://www.w3.org/1999/xlink">
 <defs>
  <style type="text/css">
   <![CDATA[
    .fil2 {fill:none}
    .fil0 {fill:black}
    .fil1 {fill:black;fill-rule:nonzero}
   ]]>
  </style>
   <clipPath id="id0">
    <path d="M-0 2.09611l2.09611 0 0 -2.09611 -2.09611 0 0 2.09611z"/>
   </clipPath>
 </defs>
 <g id="Ebene_x0020_1">
  <metadata id="CorelCorpID_0Corel-Layer"/>
  <g>
  </g>
  <g style="clip-path:url(#id0)">
   <g>
    <g id="_403159096">
     <path id="_403159912" class="fil0" d="M1.86054 0.436261l-0.390321 -0.39033c-0.0193803,-0.0193715 -0.044289,-0.0276773 -0.0719751,-0.0276773l-1.09347 0c-0.058132,0 -0.10243,0.044289 -0.10243,0.10243l0 0 0 1.85474c0,0.058132 0.044289,0.10243 0.10243,0.10243l0 0 1.48656 -8.73378e-006c0.0581233,0 0.10243,-0.044289 0.10243,-0.10243l0 0 0 -1.46441c-0.00553721,-0.0276861 -0.013843,-0.0553721 -0.0332233,-0.0747437zm-0.501057 -0.232537l0.346032 0.346032 -0.346032 0 0 -0.346032zm-1.01042 1.73017l0 -1.77724 0.855404 0 0 0.43185c0,0.0609094 0.0470576,0.105198 0.10519,0.105198l0.43185 0 0 1.23742 -1.39244 0.00276861 0 0z"/>
    </g>
    <g id="_403159360">
     <path id="_403159648" class="fil1" d="M0.721279 0.868688l0.594727 0c-0.0275813,0.0156073 -0.0556167,0.0334416 -0.0838792,0.0531363l-0.465091 0c-0.0151531,-0.0177994 -0.0303673,-0.035529 -0.0457563,-0.0531363zm0.769813 0.114971l0 0.609862 -0.053145 -0.0433545 0 -0.525162c0.0173627,-0.0140526 0.0350661,-0.0278345 0.053145,-0.0413457zm-0.207034 0.776634l-0.500646 0 0.0433457 -0.0531363 0.389168 0c0.0235375,0.01883 0.0463327,0.0366033 0.0681322,0.0531363zm-0.68458 -0.183121l0 -0.525293c0.0156422,0.0275463 0.0334853,0.0555992 0.053145,0.0839316l0 0.370391c-0.0191182,0.0247777 -0.0369002,0.0485511 -0.053145,0.0709707z"/>
     <g>
      <path id="_403159480" class="fil1" d="M0.554612 0.823115c0.00165068,-0.0350574 0.0651889,-0.0251707 0.089888,-0.00025328 0.144858,0.156239 0.269472,0.33405 0.434567,0.468724l0.481336 0.392653c0.0625775,0.0510489 -0.0388915,0.204641 -0.131985,0.145479 -0.24472,-0.155531 -0.888042,-0.705252 -0.873806,-1.0066z"/>
      <path id="_403159768" class="fil1" d="M1.54242 0.825499c0.0350486,0.00165068 0.0485161,0.0488567 0.0236074,0.0735559 -0.186597,0.121504 -0.334058,0.269472 -0.468733,0.434567l-0.392653 0.481327c-0.0510489,0.0625862 -0.204641,-0.0388915 -0.145479,-0.131976 0.15554,-0.244729 0.681907,-0.871701 0.983257,-0.857473z"/>
     </g>
    </g>
   </g>
  </g>
  <polygon class="fil2" points="-0,2.09611 2.09611,2.09611 2.09611,0 -0,0 "/>
 </g>
</svg>
