<?xml version="1.0" encoding="UTF-8"?>
<!DOCTYPE svg PUBLIC "-//W3C//DTD SVG 1.1//EN" "http://www.w3.org/Graphics/SVG/1.1/DTD/svg11.dtd">
<!-- Creator: CorelDRAW -->
<svg xmlns="http://www.w3.org/2000/svg" xml:space="preserve" width="84666.7px" height="84666.7px" style="shape-rendering:geometricPrecision; text-rendering:geometricPrecision; image-rendering:optimizeQuality; fill-rule:evenodd; clip-rule:evenodd"
viewBox="0 0 5410.62 5410.62"
 xmlns:xlink="http://www.w3.org/1999/xlink">
 <defs>
  <style type="text/css">
   <![CDATA[
    .fil1 {fill:none}
    .fil0 {fill:black;fill-rule:nonzero}
   ]]>
  </style>
   <clipPath id="id0">
    <path d="M-0 5410.62l5410.62 0 0 -5410.62 -5410.62 0 0 5410.62z"/>
   </clipPath>
 </defs>
 <g id="Ebene_x0020_1">
  <metadata id="CorelCorpID_0Corel-Layer"/>
  <g>
  </g>
  <g style="clip-path:url(#id0)">
   <g>
    <path class="fil0" d="M4690.72 5354.26l-3970.81 0c-107.175,0 -194.061,-86.8856 -194.061,-194.038l0 -4909.82c0,-107.153 86.8856,-194.038 194.061,-194.038l2581.2 0c58.1867,0 110.422,25.6554 145.974,66.2125l1379.3 1354.68 1.80354 1.781 1.73591 1.75845 0.0450885 0.0450885 1.71336 1.82608 1.64573 1.73591 0.0676328 0.090177 1.66827 1.84863 1.53301 1.75845 0.112721 0.112721 3.08856 3.62963 0.135266 0.15781 1.55555 1.91626 1.3752 1.73591 0.15781 0.202898 1.53301 1.96135 1.28502 1.69082 0.180354 0.270531 1.44283 1.96135 1.21739 1.69082 0.225443 0.293075 2.52496 3.67471 0.247987 0.360708 1.33011 2.02898 1.05958 1.64573 0.247987 0.383252 1.28502 2.07407 0.969403 1.60064 0.293075 0.473429 2.1417 3.67471 0.270531 0.473429 1.1723 2.11916 0.856682 1.55555 0.293075 0.563606 1.12721 2.11916 0.789049 1.55555 0.270531 0.586151 1.05958 2.16425 0.74396 1.51047 0.293075 0.631239 1.01449 2.18679 0.653783 1.46538 0.31562 0.698872 2.7504 6.60547 0.541062 1.42029 0.31562 0.789049 0.834137 2.20934 0.518518 1.39774 0.293075 0.856682 0.766505 2.23188 0.450885 1.33011 0.31562 0.924314 0.721416 2.25443 0.383252 1.28502 0.293075 0.969403 0.653783 2.27697 0.360708 1.23993 0.293075 1.03704 0.608695 2.27697 0.31562 1.19485 0.247987 1.08212 0.563606 2.32206 0.247987 1.14976 0.270531 1.12721 0.495974 2.32206 0.225443 1.10467 0.247987 1.19485 0.608695 3.38164 0.225443 1.23993 0.383252 2.29951 0.180354 1.03704 0.180354 1.30757 0.31562 2.32206 0.135266 0.991947 0.180354 1.35266 0.247987 2.32206 0.090177 0.924314 0.15781 1.42029 0.225443 2.32206 0.0676328 0.90177 0.112721 1.44283 0.15781 2.3446 0.0225443 0.834137 0.180354 3.85507 0.0225443 0.789049 0.0450885 1.55555 0.0450885 2.3446 0.0225443 0.74396 0 1.60064 0.586151 0 0 3545.02c0,107.153 -86.8856,194.038 -194.061,194.038zm0 -3545.02l-1389.61 0c-107.175,0 -194.038,-86.863 -194.038,-194.038l0 -1364.81 -2387.17 0 0 4909.82 3970.81 0 0 -3350.98zm-1389.61 -1558.85l0 1364.81 1389.61 0 -1389.61 -1364.81z"/>
    <g id="_171008464">
     <path id="_171012544" class="fil0" d="M1861.82 2242.32l1535.15 0c-71.1948,40.2866 -143.562,86.322 -216.515,137.159l-1200.53 0c-39.1143,-45.9452 -78.3864,-91.71 -118.109,-137.159zm1987.1 296.773l0 1574.22 -137.182 -111.91 0 -1355.59c44.818,-36.2737 90.5152,-71.8485 137.182,-106.725zm-534.412 2004.7l-1292.3 0 111.887 -137.159 1004.55 0c60.7568,48.6054 119.597,94.483 175.868,137.159zm-1767.09 -472.685l0 -1355.92c40.3768,71.1046 86.4347,143.517 137.182,216.65l0 956.079c-49.3494,63.9581 -95.2495,125.324 -137.182,183.195z"/>
     <g>
      <path id="_172311792" class="fil0" d="M1431.61 2124.68c4.26086,-90.4926 168.27,-64.9725 232.025,-0.653783 373.919,403.294 695.58,862.273 1121.73,1209.91l1242.46 1013.54c161.53,131.771 -100.39,528.234 -340.689,375.52 -631.69,-401.468 -2292.28,-1820.45 -2255.53,-2598.32z"/>
      <path id="_171013864" class="fil0" d="M3981.41 2130.84c90.4701,4.26086 125.233,126.113 60.9371,189.868 -481.658,313.636 -862.295,695.58 -1209.93,1121.73l-1013.54 1242.44c-131.771,161.552 -528.234,-100.39 -375.52,-340.666 401.491,-631.713 1760.19,-2250.1 2538.05,-2213.37z"/>
     </g>
    </g>
   </g>
  </g>
  <polygon class="fil1" points="-0,5410.62 5410.62,5410.62 5410.62,0 -0,0 "/>
 </g>
</svg>
